<?xml version="1.0" encoding="UTF-8" standalone="no" ?>
<!DOCTYPE svg PUBLIC "-//W3C//DTD SVG 1.1//EN" "http://www.w3.org/Graphics/SVG/1.1/DTD/svg11.dtd">
<svg xmlns="http://www.w3.org/2000/svg" xmlns:xlink="http://www.w3.org/1999/xlink" version="1.1" width="500" height="400" viewBox="0 0 500 400" xml:space="preserve">
<desc>Created with Fabric.js 4.2.0</desc>
<defs>
</defs>
<rect x="0" y="0" width="100%" height="100%" fill="transparent"></rect>
<g transform="matrix(1 0 0 1 250 200)" id="8f7018da-be3d-47e9-a189-8bc76e77d3ad"  >
<rect style="stroke: none; stroke-width: 1; stroke-dasharray: none; stroke-linecap: butt; stroke-dashoffset: 0; stroke-linejoin: miter; stroke-miterlimit: 4; fill: rgb(255,255,255); fill-opacity: 0; fill-rule: nonzero; opacity: 1;" vector-effect="non-scaling-stroke"  x="-250" y="-200" rx="0" ry="0" width="500" height="400" />
</g>
<g transform="matrix(Infinity NaN NaN Infinity 0 0)" id="65764b7e-a7d7-42ac-85b7-211db47e4631"  >
</g>
<g transform="matrix(1.98 0 0 1.98 251.44 198.85)"  >
<g style="" vector-effect="non-scaling-stroke"   >
		<g transform="matrix(1.02 0 0 1.02 -7.96 13.26)"  >
<path style="stroke: none; stroke-width: 1; stroke-dasharray: none; stroke-linecap: butt; stroke-dashoffset: 0; stroke-linejoin: miter; stroke-miterlimit: 4; fill: rgb(127,198,178); fill-rule: evenodd; opacity: 1;" vector-effect="non-scaling-stroke"  transform=" translate(-123, -131.37)" d="M 167.5 130.322 L 78.503 130.322 C 77.925 130.322 77.453 130.79500000000002 77.453 131.372 C 77.453 131.95000000000002 77.925 132.424 78.503 132.424 L 167.5 132.424 C 168.079 132.424 168.55 131.95000000000002 168.55 131.372 C 168.55 130.79500000000002 168.079 130.322 167.5 130.322" stroke-linecap="round" />
</g>
		<g transform="matrix(1.02 0 0 1.02 28.5 34.99)"  >
<path style="stroke: none; stroke-width: 1; stroke-dasharray: none; stroke-linecap: butt; stroke-dashoffset: 0; stroke-linejoin: miter; stroke-miterlimit: 4; fill: rgb(255,255,254); fill-rule: evenodd; opacity: 1;" vector-effect="non-scaling-stroke"  transform=" translate(-158.88, -152.76)" d="M 157.604 151.481 C 157.80100000000002 151.285 157.80100000000002 150.965 157.604 150.768 C 157.407 150.57 157.08700000000002 150.57 156.889 150.768 C 156.692 150.965 156.692 151.285 156.889 151.481 C 157.08700000000002 151.679 157.407 151.679 157.604 151.481 z M 160.86700000000002 154.745 C 161.06400000000002 154.548 161.06400000000002 154.229 160.86700000000002 154.03 C 160.67000000000002 153.833 160.35100000000003 153.833 160.15300000000002 154.03 C 159.95600000000002 154.229 159.95600000000002 154.548 160.15300000000002 154.745 C 160.35100000000003 154.943 160.67000000000002 154.943 160.86700000000002 154.745 z M 157.07600000000002 152.756 C 157.07600000000002 152.477 156.85000000000002 152.251 156.57100000000003 152.251 C 156.29200000000003 152.251 156.06600000000003 152.477 156.06600000000003 152.756 C 156.06600000000003 153.036 156.29200000000003 153.262 156.57100000000003 153.262 C 156.85100000000003 153.262 157.07600000000002 153.035 157.07600000000002 152.756 z M 161.69100000000003 152.756 C 161.69100000000003 152.477 161.46600000000004 152.251 161.18600000000004 152.251 C 160.90700000000004 152.251 160.68100000000004 152.477 160.68100000000004 152.756 C 160.68100000000004 153.036 160.90700000000004 153.262 161.18600000000004 153.262 C 161.46600000000004 153.262 161.69100000000003 153.035 161.69100000000003 152.756 z M 157.60400000000004 154.03 C 157.40700000000004 153.833 157.08700000000005 153.833 156.88900000000004 154.03 C 156.69200000000004 154.229 156.69200000000004 154.548 156.88900000000004 154.745 C 157.08700000000005 154.943 157.40700000000004 154.943 157.60400000000004 154.745 C 157.80100000000004 154.548 157.80100000000004 154.229 157.60400000000004 154.03 z M 160.86700000000005 150.768 C 160.67000000000004 150.57 160.35100000000006 150.57 160.15300000000005 150.768 C 159.95600000000005 150.965 159.95600000000005 151.285 160.15300000000005 151.481 C 160.35100000000006 151.679 160.67000000000004 151.679 160.86700000000005 151.481 C 161.06400000000005 151.285 161.06400000000005 150.965 160.86700000000005 150.768 z M 158.87900000000005 154.558 C 158.59900000000005 154.558 158.37300000000005 154.786 158.37300000000005 155.063 C 158.37300000000005 155.343 158.59900000000005 155.56799999999998 158.87900000000005 155.56799999999998 C 159.15700000000004 155.56799999999998 159.38400000000004 155.343 159.38400000000004 155.063 C 159.38400000000004 154.786 159.15700000000004 154.559 158.87900000000005 154.559 z M 158.87900000000005 149.94299999999998 C 158.59900000000005 149.94299999999998 158.37300000000005 150.17 158.37300000000005 150.44799999999998 C 158.37300000000005 150.72799999999998 158.59900000000005 150.95299999999997 158.87900000000005 150.95299999999997 C 159.15700000000004 150.95299999999997 159.38400000000004 150.72799999999998 159.38400000000004 150.44799999999998 C 159.38400000000004 150.17 159.15700000000004 149.94299999999998 158.87900000000005 149.94299999999998 z M 158.87900000000005 152.25099999999998 C 158.59900000000005 152.25099999999998 158.37300000000005 152.47699999999998 158.37300000000005 152.75599999999997 C 158.37300000000005 153.03599999999997 158.59900000000005 153.26199999999997 158.87900000000005 153.26199999999997 C 159.15700000000004 153.26199999999997 159.38400000000004 153.03499999999997 159.38400000000004 152.75599999999997 C 159.38400000000004 152.47699999999998 159.15700000000004 152.25099999999998 158.87900000000005 152.25099999999998 z M 158.87900000000005 149.26399999999998 C 160.80700000000004 149.26399999999998 162.37100000000004 150.82799999999997 162.37100000000004 152.75599999999997 C 162.37100000000004 154.68399999999997 160.80700000000004 156.24799999999996 158.87900000000005 156.24799999999996 C 156.95000000000005 156.24799999999996 155.38600000000005 154.68399999999997 155.38600000000005 152.75599999999997 C 155.38600000000005 150.82799999999997 156.95000000000005 149.26399999999998 158.87900000000005 149.26399999999998 z" stroke-linecap="round" />
</g>
		<g transform="matrix(1.02 0 0 1.02 28.5 27.84)"  >
<path style="stroke: none; stroke-width: 1; stroke-dasharray: none; stroke-linecap: butt; stroke-dashoffset: 0; stroke-linejoin: miter; stroke-miterlimit: 4; fill: rgb(255,255,254); fill-rule: evenodd; opacity: 1;" vector-effect="non-scaling-stroke"  transform=" translate(-158.88, -145.72)" d="M 159.332 142.916 C 159.361 143.966 159.09699999999998 149.684 159.09699999999998 149.684 L 158.879 149.512 L 158.659 149.684 C 158.659 149.684 158.396 143.966 158.42499999999998 142.916 C 158.46499999999997 141.373 159.291 141.373 159.332 142.916" stroke-linecap="round" />
</g>
		<g transform="matrix(1.02 0 0 1.02 28.5 19.48)"  >
<path style="stroke: none; stroke-width: 1; stroke-dasharray: none; stroke-linecap: butt; stroke-dashoffset: 0; stroke-linejoin: miter; stroke-miterlimit: 4; fill: rgb(142,178,166); fill-rule: evenodd; opacity: 1;" vector-effect="non-scaling-stroke"  transform=" translate(-158.88, -137.49)" d="M 158.866 131.606 C 158.67800000000003 131.606 158.526 131.757 158.526 131.946 C 158.526 132.133 158.678 132.286 158.866 132.286 C 159.05300000000003 132.286 159.20600000000002 132.133 159.20600000000002 131.946 C 159.20600000000002 131.757 159.05300000000003 131.606 158.866 131.606 z M 159.98700000000002 132.673 C 160.05700000000002 134.422 159.41200000000003 143.935 159.41200000000003 143.935 C 159.39600000000004 144.353 158.36500000000004 144.318 158.34500000000003 143.935 C 158.34500000000003 143.935 157.70100000000002 134.422 157.77000000000004 132.673 C 157.87200000000004 130.107 159.88500000000005 130.107 159.98700000000005 132.673 z" stroke-linecap="round" />
</g>
		<g transform="matrix(1.02 0 0 1.02 21.07 30.54)"  >
<path style="stroke: none; stroke-width: 1; stroke-dasharray: none; stroke-linecap: butt; stroke-dashoffset: 0; stroke-linejoin: miter; stroke-miterlimit: 4; fill: rgb(255,255,254); fill-rule: evenodd; opacity: 1;" vector-effect="non-scaling-stroke"  transform=" translate(-151.57, -148.38)" d="M 152.027 142.757 C 152.04799999999997 143.428 151.909 146.306 151.83499999999998 147.755 C 152.72299999999998 147.755 153.052 148.38299999999998 153.07199999999997 148.789 C 153.09099999999998 149.195 152.79599999999996 154.183 152.79599999999996 154.49699999999999 C 152.79599999999996 154.81099999999998 152.80099999999996 154.994 152.62699999999995 154.994 C 152.45399999999995 154.994 152.45399999999995 154.849 152.45399999999995 154.849 L 152.45399999999995 150.29299999999998 C 152.45399999999995 148.07699999999997 150.69299999999996 148.07699999999997 150.69299999999996 150.29299999999998 L 150.69299999999996 154.849 C 150.69299999999996 154.849 150.69299999999996 154.994 150.51899999999995 154.994 C 150.34599999999995 154.994 150.34999999999994 154.811 150.34999999999994 154.49699999999999 C 150.34999999999994 154.18299999999996 150.05499999999995 149.195 150.07499999999993 148.789 C 150.09499999999994 148.38299999999998 150.42199999999994 147.755 151.31099999999992 147.755 C 151.23799999999991 146.305 151.09799999999993 143.428 151.11899999999991 142.757 C 151.16099999999992 141.42600000000002 151.98499999999993 141.42600000000002 152.0269999999999 142.757" stroke-linecap="round" />
</g>
		<g transform="matrix(1.02 0 0 1.02 21.07 19.48)"  >
<path style="stroke: none; stroke-width: 1; stroke-dasharray: none; stroke-linecap: butt; stroke-dashoffset: 0; stroke-linejoin: miter; stroke-miterlimit: 4; fill: rgb(142,178,166); fill-rule: evenodd; opacity: 1;" vector-effect="non-scaling-stroke"  transform=" translate(-151.57, -137.49)" d="M 151.56 131.606 C 151.374 131.606 151.221 131.757 151.221 131.946 C 151.221 132.133 151.374 132.286 151.561 132.286 C 151.74800000000002 132.286 151.901 132.133 151.901 131.946 C 151.901 131.757 151.74800000000002 131.606 151.561 131.606 z M 152.681 132.673 C 152.751 134.422 152.107 143.935 152.107 143.935 C 152.09 144.353 151.059 144.318 151.04 143.935 C 151.04 143.935 150.396 134.422 150.465 132.673 C 150.567 130.107 152.58 130.107 152.681 132.673 z" stroke-linecap="round" />
</g>
		<g transform="matrix(1.02 0 0 1.02 -14.45 31.62)"  >
<path style="stroke: none; stroke-width: 1; stroke-dasharray: none; stroke-linecap: butt; stroke-dashoffset: 0; stroke-linejoin: miter; stroke-miterlimit: 4; fill: rgb(255,255,254); fill-rule: evenodd; opacity: 1;" vector-effect="non-scaling-stroke"  transform=" translate(-116.62, -149.44)" d="M 114.857 149.174 L 114.857 155.335 C 114.857 155.4 114.91 155.452 114.974 155.452 C 115.039 155.452 115.09100000000001 155.4 115.09100000000001 155.335 L 115.09100000000001 149.175 C 115.09100000000001 149.11 115.039 149.05700000000002 114.974 149.05700000000002 C 114.91000000000001 149.05700000000002 114.857 149.11 114.857 149.174 z M 115.649 148.324 L 115.649 156.185 C 115.649 156.25 115.702 156.302 115.766 156.302 C 115.831 156.302 115.88300000000001 156.25 115.88300000000001 156.185 L 115.88300000000001 148.325 C 115.88300000000001 148.26 115.831 148.208 115.766 148.208 C 115.70200000000001 148.208 115.649 148.26 115.649 148.325 z M 116.503 148.01500000000001 L 116.503 156.495 C 116.503 156.558 116.556 156.61 116.62 156.61 C 116.685 156.61 116.73700000000001 156.55800000000002 116.73700000000001 156.495 L 116.73700000000001 148.01500000000001 C 116.73700000000001 147.95100000000002 116.685 147.89800000000002 116.62 147.89800000000002 C 116.55600000000001 147.89800000000002 116.503 147.95100000000002 116.503 148.01500000000001 z M 119 150.20700000000002 L 119 154.30200000000002 C 119 154.36700000000002 119.052 154.419 119.116 154.419 C 119.181 154.419 119.233 154.36700000000002 119.233 154.30200000000002 L 119.233 150.20700000000002 C 119.233 150.14300000000003 119.181 150.09000000000003 119.116 150.09000000000003 C 119.052 150.09000000000003 119 150.14300000000003 119 150.20700000000002 z M 118.15 149.17400000000004 L 118.15 155.33500000000004 C 118.15 155.40000000000003 118.20200000000001 155.45200000000003 118.26700000000001 155.45200000000003 C 118.331 155.45200000000003 118.38400000000001 155.40000000000003 118.38400000000001 155.33500000000004 L 118.38400000000001 149.17500000000004 C 118.38400000000001 149.11000000000004 118.33100000000002 149.05700000000004 118.26700000000001 149.05700000000004 C 118.20200000000001 149.05700000000004 118.15 149.11000000000004 118.15 149.17400000000004 z M 117.358 148.32400000000004 L 117.358 156.18500000000003 C 117.358 156.25000000000003 117.41000000000001 156.30200000000002 117.47500000000001 156.30200000000002 C 117.539 156.30200000000002 117.59100000000001 156.25000000000003 117.59100000000001 156.18500000000003 L 117.59100000000001 148.32500000000002 C 117.59100000000001 148.26000000000002 117.539 148.20800000000003 117.47500000000001 148.20800000000003 C 117.41000000000001 148.20800000000003 117.358 148.26000000000002 117.358 148.32500000000002 z M 114.00800000000001 150.20700000000005 L 114.00800000000001 154.30200000000005 C 114.00800000000001 154.36700000000005 114.06000000000002 154.41900000000004 114.12400000000001 154.41900000000004 C 114.18900000000001 154.41900000000004 114.24100000000001 154.36700000000005 114.24100000000001 154.30200000000005 L 114.24100000000001 150.20700000000005 C 114.24100000000001 150.14300000000006 114.18900000000001 150.09000000000006 114.12400000000001 150.09000000000006 C 114.06000000000002 150.09000000000006 114.007 150.14300000000006 114.007 150.20700000000005 z M 116.93400000000001 147.48700000000005 C 118.662 147.71300000000005 120.01500000000001 149.77900000000005 120.01500000000001 152.29300000000006 C 120.01500000000001 154.95800000000006 118.49500000000002 157.11900000000006 116.62000000000002 157.11900000000006 C 114.74500000000002 157.11900000000006 113.22500000000002 154.95900000000006 113.22500000000002 152.29300000000006 C 113.22500000000002 149.77900000000005 114.57800000000002 147.71300000000005 116.30500000000002 147.48700000000005 C 116.23400000000002 145.75500000000005 116.15000000000002 143.53200000000004 116.16500000000002 142.91600000000005 C 116.20800000000003 141.37300000000005 117.03200000000002 141.37300000000005 117.07500000000002 142.91600000000005 C 117.09000000000002 143.53200000000007 117.00700000000002 145.75600000000006 116.93500000000002 147.48600000000005 z" stroke-linecap="round" />
</g>
		<g transform="matrix(1.02 0 0 1.02 -14.45 19.48)"  >
<path style="stroke: none; stroke-width: 1; stroke-dasharray: none; stroke-linecap: butt; stroke-dashoffset: 0; stroke-linejoin: miter; stroke-miterlimit: 4; fill: rgb(142,178,166); fill-rule: evenodd; opacity: 1;" vector-effect="non-scaling-stroke"  transform=" translate(-116.62, -137.49)" d="M 116.608 131.606 C 116.42 131.606 116.268 131.757 116.268 131.946 C 116.268 132.133 116.42 132.286 116.608 132.286 C 116.796 132.286 116.94800000000001 132.133 116.94800000000001 131.946 C 116.94800000000001 131.757 116.796 131.606 116.608 131.606 z M 117.72800000000001 132.673 C 117.798 134.422 117.153 143.935 117.153 143.935 C 117.138 144.353 116.107 144.318 116.087 143.935 C 116.087 143.935 115.443 134.422 115.512 132.673 C 115.613 130.107 117.627 130.107 117.729 132.673 z" stroke-linecap="round" />
</g>
		<g transform="matrix(1.02 0 0 1.02 -24.33 30.79)"  >
<path style="stroke: none; stroke-width: 1; stroke-dasharray: none; stroke-linecap: butt; stroke-dashoffset: 0; stroke-linejoin: miter; stroke-miterlimit: 4; fill: rgb(255,255,254); fill-rule: evenodd; opacity: 1;" vector-effect="non-scaling-stroke"  transform=" translate(-106.9, -148.62)" d="M 109.1 151.819 C 108.95599999999999 151.819 108.83999999999999 151.93599999999998 108.83999999999999 152.07899999999998 L 108.83999999999999 154.68699999999998 C 108.83999999999999 154.82999999999998 108.95599999999999 154.94799999999998 109.1 154.94799999999998 C 109.243 154.94799999999998 109.36 154.82999999999998 109.36 154.68699999999998 L 109.36 152.07899999999998 C 109.36 151.93599999999998 109.243 151.819 109.1 151.819 z M 107.999 149.23399999999998 C 107.85499999999999 149.23399999999998 107.73899999999999 149.35 107.73899999999999 149.49399999999997 L 107.73899999999999 154.68699999999998 C 107.73899999999999 154.82999999999998 107.85499999999999 154.94799999999998 107.999 154.94799999999998 C 108.142 154.94799999999998 108.259 154.82999999999998 108.259 154.68699999999998 L 108.259 149.493 C 108.259 149.35 108.142 149.233 107.999 149.233 z M 106.898 149.84799999999998 C 106.755 149.84799999999998 106.63799999999999 149.96699999999998 106.63799999999999 150.10799999999998 L 106.63799999999999 154.68699999999998 C 106.63799999999999 154.82999999999998 106.755 154.94799999999998 106.898 154.94799999999998 C 107.042 154.94799999999998 107.15899999999999 154.82999999999998 107.15899999999999 154.68699999999998 L 107.15899999999999 150.10899999999998 C 107.15899999999999 149.96699999999998 107.04199999999999 149.84799999999998 106.898 149.84799999999998 z M 105.798 149.23399999999998 C 105.654 149.23399999999998 105.537 149.35 105.537 149.49399999999997 L 105.537 154.68699999999998 C 105.537 154.82999999999998 105.65400000000001 154.94799999999998 105.79700000000001 154.94799999999998 C 105.94100000000002 154.94799999999998 106.058 154.82999999999998 106.058 154.68699999999998 L 106.058 149.493 C 106.058 149.35 105.941 149.233 105.798 149.233 z M 104.696 151.819 C 104.553 151.819 104.43599999999999 151.93599999999998 104.43599999999999 152.07899999999998 L 104.43599999999999 154.68699999999998 C 104.43599999999999 154.82999999999998 104.553 154.94799999999998 104.696 154.94799999999998 C 104.84 154.94799999999998 104.957 154.82999999999998 104.957 154.68699999999998 L 104.957 152.07899999999998 C 104.957 151.93599999999998 104.83999999999999 151.819 104.69699999999999 151.819 z M 107.352 142.916 C 107.372 143.619 107.259 146.412 107.182 148.183 C 107.777 148.26399999999998 109.105 148.504 109.255 149.04399999999998 C 109.448 149.743 109.853 154.7 109.795 155.07699999999997 C 109.737 155.45299999999997 109.255 155.48899999999998 109.255 155.48899999999998 L 104.542 155.48899999999998 C 104.542 155.48899999999998 104.059 155.45299999999997 104.001 155.07699999999997 C 103.943 154.69999999999996 104.348 149.74299999999997 104.54100000000001 149.04399999999998 C 104.69100000000002 148.504 106.02000000000001 148.26399999999998 106.61300000000001 148.18399999999997 C 106.53700000000002 146.41199999999998 106.42500000000001 143.61899999999997 106.44500000000001 142.91599999999997 C 106.486 141.37299999999996 107.311 141.37299999999996 107.352 142.91599999999997 z" stroke-linecap="round" />
</g>
		<g transform="matrix(1.02 0 0 1.02 -24.33 19.48)"  >
<path style="stroke: none; stroke-width: 1; stroke-dasharray: none; stroke-linecap: butt; stroke-dashoffset: 0; stroke-linejoin: miter; stroke-miterlimit: 4; fill: rgb(142,178,166); fill-rule: evenodd; opacity: 1;" vector-effect="non-scaling-stroke"  transform=" translate(-106.9, -137.49)" d="M 106.886 131.606 C 106.698 131.606 106.54599999999999 131.757 106.54599999999999 131.946 C 106.54599999999999 132.133 106.698 132.286 106.886 132.286 C 107.074 132.286 107.226 132.133 107.226 131.946 C 107.226 131.757 107.074 131.606 106.886 131.606 z M 108.006 132.673 C 108.076 134.422 107.431 143.935 107.431 143.935 C 107.41499999999999 144.353 106.38499999999999 144.318 106.365 143.935 C 106.365 143.935 105.72099999999999 134.422 105.789 132.673 C 105.891 130.107 107.905 130.107 108.007 132.673 z" stroke-linecap="round" />
</g>
		<g transform="matrix(1.02 0 0 1.02 0 1.4)"  >
<path style="stroke: none; stroke-width: 1; stroke-dasharray: none; stroke-linecap: butt; stroke-dashoffset: 0; stroke-linejoin: miter; stroke-miterlimit: 4; fill: rgb(237,237,237); fill-rule: evenodd; opacity: 1;" vector-effect="non-scaling-stroke"  transform=" translate(-130.84, -119.7)" d="M 227.392 56.22 C 224.822 56.22 222.74 54.138 222.74 51.568 C 222.74 49 224.823 46.916 227.392 46.916 C 229.962 46.916 232.04399999999998 49 232.04399999999998 51.568 C 232.04399999999998 54.138 229.96099999999998 56.221 227.392 56.221 z M 78.282 35.135 C 74.929 35.135 72.211 32.417 72.211 29.064999999999998 C 72.211 25.711999999999996 74.929 22.994 78.281 22.994 C 81.634 22.994 84.351 25.712 84.351 29.064 C 84.351 32.417 81.634 35.134 78.281 35.134 z M 213.96699999999998 216.40699999999998 C 235.629 216.40699999999998 253.35299999999998 198.68399999999997 253.35299999999998 177.021 C 253.35299999999998 155.35899999999998 235.629 137.636 213.968 137.636 L 213.96699999999998 137.636 C 204.808 137.636 197.314 130.142 197.314 120.983 C 197.314 111.82300000000001 204.808 104.33000000000001 213.968 104.33000000000001 L 215.94899999999998 104.33000000000001 C 225.47099999999998 104.33000000000001 233.26299999999998 96.53900000000002 233.26299999999998 87.01600000000002 C 233.26299999999998 77.49300000000002 225.47099999999998 69.70300000000002 215.94899999999998 69.70300000000002 L 209.86899999999997 69.70300000000002 C 206.16199999999998 69.70300000000002 203.12899999999996 66.66900000000001 203.12899999999996 62.963000000000015 C 203.12899999999996 59.25500000000002 206.16199999999995 56.222000000000016 209.86899999999997 56.222000000000016 L 214.33699999999996 56.222000000000016 C 216.89499999999995 56.222000000000016 218.98899999999995 54.128000000000014 218.98899999999995 51.56900000000002 C 218.98899999999995 49.01000000000002 216.89499999999995 46.917000000000016 214.33699999999996 46.917000000000016 L 184.30499999999995 46.917000000000016 C 180.28499999999994 46.917000000000016 176.99499999999995 43.62900000000002 176.99499999999995 39.60800000000002 C 176.99499999999995 35.58800000000002 180.28499999999994 32.298000000000016 184.30499999999995 32.298000000000016 L 193.28499999999994 32.298000000000016 C 195.84299999999993 32.298000000000016 197.93599999999995 30.205000000000016 197.93599999999995 27.646000000000015 C 197.93599999999995 25.088000000000015 195.84199999999996 22.994000000000014 193.28499999999994 22.994000000000014 L 93.81499999999994 22.994000000000014 C 90.47499999999994 22.994000000000014 87.74399999999994 25.726000000000013 87.74399999999994 29.064000000000014 C 87.74399999999994 32.40300000000001 90.47599999999994 35.134000000000015 93.81399999999994 35.134000000000015 L 107.83999999999993 35.134000000000015 C 113.08599999999993 35.134000000000015 117.37899999999993 39.42800000000001 117.37899999999993 44.674000000000014 C 117.37899999999993 49.91900000000001 113.08599999999993 54.21200000000002 107.83999999999993 54.21200000000002 L 35.35 54.21200000000002 C 32.012 54.21200000000002 29.28 56.94300000000002 29.28 60.28200000000002 C 29.28 63.62000000000002 32.012 66.35200000000002 35.35 66.35200000000002 L 41.18 66.35200000000002 C 46.016999999999996 66.35200000000002 49.975 70.31000000000002 49.975 75.14700000000002 C 49.975 79.98500000000001 46.017 83.94300000000001 41.18 83.94300000000001 L 33.246 83.94300000000001 C 20.821 83.94300000000001 10.654000000000003 94.11000000000001 10.654000000000003 106.53400000000002 L 10.654000000000003 106.53500000000003 C 10.654000000000003 118.96100000000003 20.821000000000005 129.12800000000001 33.246 129.12800000000001 L 35.833000000000006 129.12800000000001 C 47.784000000000006 129.12800000000001 57.563 138.906 57.563 150.858 C 57.563 162.808 47.784000000000006 172.588 35.833 172.588 L 30.232999999999997 172.588 C 18.181999999999995 172.588 8.322999999999997 182.447 8.322999999999997 194.498 C 8.322999999999997 206.548 18.181999999999995 216.40699999999998 30.232999999999997 216.40699999999998 L 213.967 216.40699999999998 z" stroke-linecap="round" />
</g>
		<g transform="matrix(-1.02 0 0 1.02 4.7 -7.28)"  >
<path style="stroke: none; stroke-width: 1; stroke-dasharray: none; stroke-linecap: butt; stroke-dashoffset: 0; stroke-linejoin: miter; stroke-miterlimit: 4; fill: rgb(238,238,238); fill-rule: nonzero; opacity: 1;" vector-effect="non-scaling-stroke"  transform=" translate(-47.54, -41.16)" d="M 93.507 20.14 C 91.917 16.351 88.97 13.404 85.20700000000001 11.83 C 85.19200000000001 11.825 85.17200000000001 11.814 85.15700000000001 11.809 C 84.74300000000001 9.357 83.44700000000002 7.185 81.46100000000001 5.656999999999999 C 79.37500000000001 4.056999999999999 76.79500000000002 3.359999999999999 74.20400000000001 3.700999999999999 L 53.91 6.364 C 52.33 4.454 50.312 2.947 47.974 1.9660000000000002 C 44.20099999999999 0.38700000000000023 40.056999999999995 0.3820000000000001 36.31399999999999 1.9560000000000002 C 32.66599999999999 3.489 29.934999999999995 6.323 28.427999999999994 9.703 L 8.887999999999995 12.267999999999999 C 3.52 12.975 -0.28 17.915 0.428 23.283 L 4.708 55.892 C 5.728 63.675 9.738 70.606 16 75.417 C 21.223 79.427 27.468 81.548 33.915 81.548 C 35.195 81.548 36.485 81.46600000000001 37.781 81.295 L 70.699 76.965 C 76.899 76.15 82.349 72.924 86.044 67.876 C 89.719 62.859 91.154 56.733000000000004 90.095 50.61200000000001 L 88.557 38.48800000000001 C 94.095 34.410000000000004 96.325 26.84400000000001 93.507 20.139000000000006 z" stroke-linecap="round" />
</g>
		<g transform="matrix(-1.02 0 0 1.02 6.68 -6.03)"  >
<path style="stroke: none; stroke-width: 1; stroke-dasharray: none; stroke-linecap: butt; stroke-dashoffset: 0; stroke-linejoin: miter; stroke-miterlimit: 4; fill: rgb(215,215,215); fill-rule: nonzero; opacity: 1;" vector-effect="non-scaling-stroke"  transform=" translate(-45.59, -42.4)" d="M 33.966 81.827 C 27.443 81.827 21.126 79.685 15.84 75.623 C 9.502 70.756 5.445 63.737 4.413 55.866 L 0.088 22.87 C -0.625 17.435 3.215 12.439 8.65 11.72 L 74.74600000000001 3.0540000000000003 C 77.36800000000001 2.7090000000000005 79.97900000000001 3.4110000000000005 82.09 5.031000000000001 C 84.20100000000001 6.651000000000001 85.548 8.99 85.894 11.617 L 90.82400000000001 50.522999999999996 C 91.897 56.715999999999994 90.44100000000002 62.91499999999999 86.72500000000001 67.993 C 82.98800000000001 73.098 77.471 76.365 71.2 77.191 L 37.889 81.57300000000001 C 36.573 81.74300000000001 35.267 81.82600000000001 33.966 81.82600000000001 z M 76.031 11.33 C 75.96400000000001 11.33 75.897 11.335 75.83000000000001 11.346 L 9.734 20.01 C 8.888 20.124000000000002 8.264 20.929000000000002 8.377 21.78 L 12.702000000000002 54.777 C 13.445000000000002 60.439 16.366000000000003 65.487 20.934 68.991 C 25.502000000000002 72.501 31.133000000000003 74.023 36.79 73.28 L 70.1 68.898 C 74.08999999999999 68.372 77.595 66.297 79.969 63.05 C 82.34899999999999 59.803999999999995 83.267 55.834999999999994 82.565 51.876 L 82.535 51.669999999999995 L 77.595 12.685999999999993 C 77.523 12.149999999999993 77.187 11.813999999999993 76.991 11.664999999999992 C 76.821 11.529999999999992 76.485 11.328999999999992 76.031 11.328999999999992 z" stroke-linecap="round" />
</g>
		<g transform="matrix(-1.02 0 0 1.02 -6.23 -17.65)"  >
<path style="stroke: none; stroke-width: 1; stroke-dasharray: none; stroke-linecap: butt; stroke-dashoffset: 0; stroke-linejoin: miter; stroke-miterlimit: 4; fill: rgb(196,196,196); fill-rule: nonzero; opacity: 1;" vector-effect="non-scaling-stroke"  transform=" translate(-58.29, -30.96)" d="M 42.617 31.226 C 40.614 31.226 38.607 30.823 36.692 30.023 C 32.888 28.428 29.905 25.445 28.294 21.61 C 24.96 13.687999999999999 28.599 4.567999999999998 36.403 1.2850000000000001 C 40.190999999999995 -0.30999999999999983 44.382 -0.30499999999999994 48.201 1.2950000000000002 C 52.005 2.89 54.988 5.874 56.599000000000004 9.708 C 59.93300000000001 17.631 56.294000000000004 26.750999999999998 48.49 30.034 C 46.601 30.828 44.609 31.226 42.617000000000004 31.226 z M 42.28 5.12 C 40.944 5.12 39.617000000000004 5.383 38.353 5.915 C 33.103 8.124 30.667 14.292000000000002 32.923 19.665 C 34.023 22.276 36.045 24.31 38.631 25.387999999999998 C 41.196 26.462 44.009 26.467999999999996 46.544 25.403999999999996 C 51.793 23.193999999999996 54.229 17.026999999999994 51.974 11.653999999999996 C 50.873999999999995 9.042999999999996 48.851 7.008999999999997 46.263999999999996 5.929999999999996 C 44.974 5.387999999999996 43.62199999999999 5.119999999999996 42.279999999999994 5.119999999999996 z M 80.289 41.208 C 78.286 41.208 76.279 40.805 74.364 40.004999999999995 C 70.56 38.41 67.577 35.42699999999999 65.96600000000001 31.591999999999995 C 62.632000000000005 23.669999999999995 66.27100000000002 14.549999999999994 74.075 11.266999999999996 C 77.863 9.671999999999995 82.055 9.676999999999996 85.874 11.276999999999996 C 89.67699999999999 12.871999999999996 92.661 15.854999999999997 94.271 19.689999999999998 C 97.605 27.613 93.966 36.733 86.163 40.015 C 84.273 40.81 82.28099999999999 41.208 80.289 41.208 z M 79.949 15.101999999999997 C 78.612 15.101999999999997 77.285 15.364999999999997 76.021 15.896999999999997 C 70.771 18.105999999999998 68.33500000000001 24.273999999999997 70.59100000000001 29.647 C 71.691 32.257999999999996 73.71400000000001 34.292 76.299 35.37 C 78.86500000000001 36.443999999999996 81.677 36.449 84.212 35.385999999999996 C 89.461 33.175999999999995 91.897 27.008999999999993 89.642 21.635999999999996 C 88.542 19.024999999999995 86.51899999999999 16.990999999999996 83.932 15.911999999999995 C 82.648 15.369999999999996 81.295 15.101999999999995 79.94800000000001 15.101999999999995 z M 55.53 61.827 C 54.612 61.827 53.724000000000004 61.321 53.285000000000004 60.439 C 48.025000000000006 49.941 35.215 45.683 24.712000000000003 50.937 C 23.474000000000004 51.556999999999995 21.966000000000005 51.055 21.342000000000002 49.817 C 20.722 48.578 21.223000000000003 47.066 22.462000000000003 46.447 C 35.432 39.948 51.272000000000006 45.218 57.77 58.188 C 58.39 59.428000000000004 57.889 60.939 56.650000000000006 61.558 C 56.294000000000004 61.739 55.912000000000006 61.828 55.53000000000001 61.828 z" stroke-linecap="round" />
</g>
		<g transform="matrix(1.02 0 0 1.02 21.63 72.28)"  >
<path style="stroke: none; stroke-width: 1; stroke-dasharray: none; stroke-linecap: butt; stroke-dashoffset: 0; stroke-linejoin: miter; stroke-miterlimit: 4; fill: rgb(207,207,207); fill-rule: evenodd; opacity: 1;" vector-effect="non-scaling-stroke"  transform=" translate(-152.12, -189.45)" d="M 65.902 162.5 L 238.344 162.5 L 238.344 207.898 C 231.626 213.219 223.15099999999998 216.406 213.96699999999998 216.406 L 65.902 216.406 L 65.902 162.49900000000002" stroke-linecap="round" />
</g>
		<g transform="matrix(1.02 0 0 1.02 -26.88 78.53)"  >
<path style="stroke: none; stroke-width: 1; stroke-dasharray: none; stroke-linecap: butt; stroke-dashoffset: 0; stroke-linejoin: miter; stroke-miterlimit: 4; fill: rgb(214,214,214); fill-rule: evenodd; opacity: 1;" vector-effect="non-scaling-stroke"  transform=" translate(-104.39, -195.6)" d="M 142.876 216.406 L 65.902 216.406 L 65.902 174.80200000000002 C 66.024 174.79700000000003 66.147 174.79300000000003 66.27 174.79300000000003 L 133.236 174.79300000000003 C 138.53799999999998 174.79300000000003 142.87599999999998 179.13100000000003 142.87599999999998 184.43400000000003 L 142.87599999999998 216.40600000000003" stroke-linecap="round" />
</g>
		<g transform="matrix(1.02 0 0 1.02 67.48 72.28)"  >
<path style="stroke: none; stroke-width: 1; stroke-dasharray: none; stroke-linecap: butt; stroke-dashoffset: 0; stroke-linejoin: miter; stroke-miterlimit: 4; fill: rgb(235,235,235); fill-rule: evenodd; opacity: 1;" vector-effect="non-scaling-stroke"  transform=" translate(-197.24, -189.45)" d="M 156.142 162.5 L 238.344 162.5 L 238.344 207.898 C 231.626 213.219 223.15099999999998 216.406 213.96699999999998 216.406 L 156.142 216.406 L 156.142 162.49900000000002" stroke-linecap="round" />
</g>
		<g transform="matrix(1.02 0 0 1.02 67.48 53.34)"  >
<path style="stroke: none; stroke-width: 1; stroke-dasharray: none; stroke-linecap: butt; stroke-dashoffset: 0; stroke-linejoin: miter; stroke-miterlimit: 4; fill: rgb(218,218,218); fill-rule: evenodd; opacity: 1;" vector-effect="non-scaling-stroke"  transform=" translate(-197.24, -170.81)" d="M 156.142 179.123 L 238.344 179.123 L 238.344 162.499 L 156.142 162.499 z" stroke-linecap="round" />
</g>
		<g transform="matrix(1.02 0 0 1.02 22.24 44.32)"  >
<path style="stroke: none; stroke-width: 1; stroke-dasharray: none; stroke-linecap: butt; stroke-dashoffset: 0; stroke-linejoin: miter; stroke-miterlimit: 4; fill: rgb(222,222,222); fill-rule: evenodd; opacity: 1;" vector-effect="non-scaling-stroke"  transform=" translate(-152.73, -161.94)" d="M 241.423 158.852 L 64.03 158.852 C 62.33 158.852 60.942 160.242 60.942 161.939 C 60.942 163.636 62.331 165.02599999999998 64.03 165.02599999999998 L 241.423 165.02599999999998 C 243.121 165.02599999999998 244.51 163.636 244.51 161.939 C 244.51 160.242 243.12 158.852 241.423 158.852" stroke-linecap="round" />
</g>
		<g transform="matrix(1.02 0 0 1.02 73.58 68.97)"  >
<path style="stroke: none; stroke-width: 1; stroke-dasharray: none; stroke-linecap: butt; stroke-dashoffset: 0; stroke-linejoin: miter; stroke-miterlimit: 4; fill: rgb(214,214,214); fill-rule: evenodd; opacity: 1;" vector-effect="non-scaling-stroke"  transform=" translate(-203.24, -186.19)" d="M 238.344 184.532 L 238.344 187.85600000000002 L 169.8 187.85600000000002 C 168.88500000000002 187.85600000000002 168.137 187.10800000000003 168.137 186.19400000000002 C 168.137 185.27900000000002 168.885 184.532 169.8 184.532 L 238.34500000000003 184.532" stroke-linecap="round" />
</g>
		<g transform="matrix(1.02 0 0 1.02 74.48 88.27)"  >
<path style="stroke: none; stroke-width: 1; stroke-dasharray: none; stroke-linecap: butt; stroke-dashoffset: 0; stroke-linejoin: miter; stroke-miterlimit: 4; fill: rgb(209,209,209); fill-rule: evenodd; opacity: 1;" vector-effect="non-scaling-stroke"  transform=" translate(-204.13, -205.19)" d="M 238.344 193.965 L 238.344 207.898 C 231.626 213.219 223.15099999999998 216.406 213.96699999999998 216.406 L 169.91699999999997 216.406 L 169.91699999999997 197.602 C 169.91699999999997 195.602 171.55299999999997 193.965 173.55299999999997 193.965 L 238.34399999999997 193.965" stroke-linecap="round" />
</g>
		<g transform="matrix(1.02 0 0 1.02 79.27 91.47)"  >
<path style="stroke: none; stroke-width: 1; stroke-dasharray: none; stroke-linecap: butt; stroke-dashoffset: 0; stroke-linejoin: miter; stroke-miterlimit: 4; fill: rgb(223,223,223); fill-rule: evenodd; opacity: 1;" vector-effect="non-scaling-stroke"  transform=" translate(-208.84, -208.33)" d="M 238.344 200.26 L 238.344 207.898 C 231.626 213.219 223.15099999999998 216.406 213.96699999999998 216.406 L 179.327 216.406 L 179.327 206.667 C 179.327 203.143 182.21099999999998 200.25900000000001 185.73499999999999 200.25900000000001 L 238.34499999999997 200.25900000000001" stroke-linecap="round" />
</g>
		<g transform="matrix(1.02 0 0 1.02 67.81 44.32)"  >
<path style="stroke: none; stroke-width: 1; stroke-dasharray: none; stroke-linecap: butt; stroke-dashoffset: 0; stroke-linejoin: miter; stroke-miterlimit: 4; fill: rgb(232,232,232); fill-rule: evenodd; opacity: 1;" vector-effect="non-scaling-stroke"  transform=" translate(-197.56, -161.94)" d="M 242.931 158.852 L 152.193 158.852 C 151.324 158.852 150.613 160.242 150.613 161.939 C 150.613 163.636 151.324 165.02599999999998 152.193 165.02599999999998 L 242.931 165.02599999999998 C 243.8 165.02599999999998 244.51100000000002 163.636 244.51100000000002 161.939 C 244.51100000000002 160.242 243.8 158.852 242.931 158.852" stroke-linecap="round" />
</g>
		<g transform="matrix(1.02 0 0 1.02 86.96 7.92)"  >
<path style="stroke: none; stroke-width: 1; stroke-dasharray: none; stroke-linecap: butt; stroke-dashoffset: 0; stroke-linejoin: miter; stroke-miterlimit: 4; fill: rgb(205,205,205); fill-rule: evenodd; opacity: 1;" vector-effect="non-scaling-stroke"  transform=" translate(-216.41, -126.12)" d="M 215.754 126.62 L 217.064 126.62 L 217.064 125.622 L 215.754 125.622 z" stroke-linecap="round" />
</g>
		<g transform="matrix(1.02 0 0 1.02 87.79 10.25)"  >
<path style="stroke: none; stroke-width: 1; stroke-dasharray: none; stroke-linecap: butt; stroke-dashoffset: 0; stroke-linejoin: miter; stroke-miterlimit: 4; fill: rgb(246,245,244); fill-rule: evenodd; opacity: 1;" vector-effect="non-scaling-stroke"  transform=" translate(-217.22, -128.41)" d="M 218.919 127.455 C 220.90900000000002 127.455 222.619 128.715 223.28900000000002 130.477 L 226.472 130.477 C 226.202 128.159 224.21800000000002 126.34700000000001 221.83200000000002 126.34700000000001 L 210.98700000000002 126.34700000000001 C 209.842 126.34700000000001 208.78900000000002 126.76500000000001 207.97400000000002 127.45500000000001 L 218.919 127.45500000000001" stroke-linecap="round" />
</g>
		<g transform="matrix(1.02 0 0 1.02 5.53 -10.34)"  >
<path style="stroke: none; stroke-width: 1; stroke-dasharray: none; stroke-linecap: butt; stroke-dashoffset: 0; stroke-linejoin: miter; stroke-miterlimit: 4; fill: rgb(255,255,254); fill-rule: evenodd; opacity: 1;" vector-effect="non-scaling-stroke"  transform=" translate(-136.28, -108.16)" d="M 145.713 38.964 C 145.713 38.711 145.917 38.507 146.17 38.507 C 146.422 38.507 146.62699999999998 38.711 146.62699999999998 38.964 L 146.62699999999998 39.565 L 147.22799999999998 39.565 C 147.48 39.565 147.68499999999997 39.769999999999996 147.68499999999997 40.022 C 147.68499999999997 40.274 147.47999999999996 40.479 147.22799999999998 40.479 L 146.62699999999998 40.479 L 146.62699999999998 41.08 C 146.62699999999998 41.332 146.42199999999997 41.537 146.17 41.537 C 145.917 41.537 145.713 41.332 145.713 41.08 L 145.713 40.48 L 145.112 40.48 C 144.85999999999999 40.48 144.655 40.273999999999994 144.655 40.022 C 144.655 39.77 144.86 39.565 145.112 39.565 L 145.712 39.565 L 145.712 38.964999999999996 M 27.753 91.185 C 27.753 90.933 27.957 90.729 28.209 90.729 C 28.462 90.729 28.666999999999998 90.93299999999999 28.666999999999998 91.185 L 28.666999999999998 91.787 L 29.267 91.787 C 29.52 91.787 29.724 91.991 29.724 92.24300000000001 C 29.724 92.49600000000001 29.52 92.7 29.268 92.7 L 28.667 92.7 L 28.667 93.301 C 28.667 93.554 28.462000000000003 93.758 28.209000000000003 93.758 C 27.957000000000004 93.758 27.753000000000004 93.554 27.753000000000004 93.301 L 27.753000000000004 92.70100000000001 L 27.152000000000005 92.70100000000001 C 26.899000000000004 92.70100000000001 26.695000000000004 92.49600000000001 26.695000000000004 92.24300000000001 C 26.695000000000004 91.99100000000001 26.899000000000004 91.787 27.152000000000005 91.787 L 27.752000000000006 91.787 L 27.752000000000006 91.185 M 111.891 153.476 C 111.891 153.223 112.095 153.018 112.348 153.018 C 112.6 153.018 112.80499999999999 153.223 112.80499999999999 153.476 L 112.80499999999999 154.076 L 113.40499999999999 154.076 C 113.65799999999999 154.076 113.86299999999999 154.281 113.86299999999999 154.533 C 113.86299999999999 154.78599999999997 113.65799999999999 154.98999999999998 113.40599999999999 154.98999999999998 L 112.80499999999999 154.98999999999998 L 112.80499999999999 155.58999999999997 C 112.80499999999999 155.84299999999996 112.6 156.04699999999997 112.348 156.04699999999997 C 112.095 156.04699999999997 111.891 155.84299999999996 111.891 155.58999999999997 L 111.891 154.98999999999998 L 111.29100000000001 154.98999999999998 C 111.03800000000001 154.98999999999998 110.83300000000001 154.78599999999997 110.83300000000001 154.533 C 110.83300000000001 154.28099999999998 111.03800000000001 154.076 111.29 154.076 L 111.891 154.076 L 111.891 153.476 M 52.898 185.961 C 52.898 185.71 53.102000000000004 185.50400000000002 53.354000000000006 185.50400000000002 C 53.60600000000001 185.50400000000002 53.812000000000005 185.71 53.812000000000005 185.961 L 53.812000000000005 186.56300000000002 L 54.412000000000006 186.56300000000002 C 54.66400000000001 186.56300000000002 54.86900000000001 186.76700000000002 54.86900000000001 187.02 C 54.86900000000001 187.27200000000002 54.66400000000001 187.477 54.412000000000006 187.477 L 53.812000000000005 187.477 L 53.812000000000005 188.077 C 53.812000000000005 188.32999999999998 53.606 188.534 53.354000000000006 188.534 C 53.10200000000001 188.534 52.898 188.32999999999998 52.898 188.077 L 52.898 187.477 L 52.29600000000001 187.477 C 52.044000000000004 187.477 51.84 187.272 51.84 187.02 C 51.84 186.76700000000002 52.044000000000004 186.56300000000002 52.29600000000001 186.56300000000002 L 52.898 186.56300000000002 L 52.898 185.961 M 243.9 164.203 C 243.9 163.95000000000002 244.106 163.745 244.358 163.745 C 244.61 163.745 244.814 163.95000000000002 244.814 164.203 L 244.814 164.803 L 245.416 164.803 C 245.668 164.803 245.873 165.008 245.873 165.26 C 245.873 165.51199999999997 245.66799999999998 165.71699999999998 245.416 165.71699999999998 L 244.814 165.71699999999998 L 244.814 166.31699999999998 C 244.814 166.56999999999996 244.60999999999999 166.77399999999997 244.358 166.77399999999997 C 244.10600000000002 166.77399999999997 243.9 166.56999999999996 243.9 166.31699999999998 L 243.9 165.71699999999998 L 243.3 165.71699999999998 C 243.04700000000003 165.71699999999998 242.84300000000002 165.51199999999997 242.84300000000002 165.26 C 242.84300000000002 165.008 243.04700000000003 164.803 243.3 164.803 L 243.9 164.803 L 243.9 164.203 M 171.315 50.478 C 171.315 50.226 171.52 50.022 171.772 50.022 C 172.02399999999997 50.022 172.22899999999998 50.226 172.22899999999998 50.478 L 172.22899999999998 51.079 L 172.82899999999998 51.079 C 173.08199999999997 51.079 173.28699999999998 51.284 173.28699999999998 51.536 C 173.28699999999998 51.788000000000004 173.08199999999997 51.993 172.82999999999998 51.993 L 172.22899999999998 51.993 L 172.22899999999998 52.594 C 172.22899999999998 52.846000000000004 172.02399999999997 53.051 171.772 53.051 C 171.52 53.051 171.315 52.846000000000004 171.315 52.594 L 171.315 51.993 L 170.714 51.993 C 170.462 51.993 170.257 51.788000000000004 170.257 51.536 C 170.257 51.284 170.46200000000002 51.079 170.714 51.079 L 171.314 51.079 L 171.314 50.479 M 110.87 28.235 C 110.87 27.983 111.07600000000001 27.778 111.327 27.778 C 111.58 27.778 111.785 27.982999999999997 111.785 28.235 L 111.785 28.836 L 112.38499999999999 28.836 C 112.63799999999999 28.836 112.84299999999999 29.040999999999997 112.84299999999999 29.293 C 112.84299999999999 29.545 112.63799999999999 29.75 112.386 29.75 L 111.785 29.75 L 111.785 30.35 C 111.785 30.603 111.58 30.807000000000002 111.327 30.807000000000002 C 111.076 30.807000000000002 110.871 30.603 110.871 30.351000000000003 L 110.871 29.750000000000004 L 110.27 29.750000000000004 C 110.017 29.750000000000004 109.813 29.545000000000005 109.813 29.293000000000003 C 109.813 29.041 110.017 28.836000000000002 110.27 28.836000000000002 L 110.86999999999999 28.836000000000002 L 110.86999999999999 28.235000000000003" stroke-linecap="round" />
</g>
		<g transform="matrix(1.02 0 0 1.02 3.2 -1.57)"  >
<path style="stroke: none; stroke-width: 1; stroke-dasharray: none; stroke-linecap: butt; stroke-dashoffset: 0; stroke-linejoin: miter; stroke-miterlimit: 4; fill: rgb(205,205,205); fill-rule: evenodd; opacity: 1;" vector-effect="non-scaling-stroke"  transform=" translate(-133.99, -116.78)" d="M 104.584 44.793 C 104.584 44.541 104.789 44.336 105.042 44.336 C 105.294 44.336 105.498 44.541 105.498 44.793 L 105.498 45.393 L 106.10000000000001 45.393 C 106.35100000000001 45.393 106.557 45.599000000000004 106.557 45.851 C 106.557 46.102999999999994 106.351 46.308 106.10000000000001 46.308 L 105.498 46.308 L 105.498 46.909 C 105.498 47.161 105.29400000000001 47.365 105.042 47.365 C 104.789 47.365 104.584 47.161 104.584 46.909 L 104.584 46.308 L 103.98400000000001 46.308 C 103.73100000000001 46.308 103.52600000000001 46.103 103.52600000000001 45.851 C 103.52600000000001 45.599 103.73100000000001 45.394 103.98400000000001 45.394 L 104.584 45.394 L 104.584 44.794 M 31.504 136.273 C 31.504 136.021 31.709 135.816 31.961000000000002 135.816 C 32.21300000000001 135.816 32.418 136.02100000000002 32.418 136.273 L 32.418 136.873 L 33.019 136.873 C 33.271 136.873 33.476 137.078 33.476 137.331 C 33.476 137.58399999999997 33.271 137.78799999999998 33.019 137.78799999999998 L 32.418 137.78799999999998 L 32.418 138.38899999999998 C 32.418 138.641 32.213 138.84499999999997 31.961 138.84499999999997 C 31.708999999999996 138.84499999999997 31.503999999999998 138.64099999999996 31.503999999999998 138.38899999999998 L 31.503999999999998 137.789 L 30.903999999999996 137.789 C 30.650999999999996 137.789 30.446999999999996 137.58399999999997 30.446999999999996 137.331 C 30.446999999999996 137.078 30.650999999999996 136.874 30.902999999999995 136.874 L 31.503999999999994 136.874 L 31.503999999999994 136.273 M 235.563 108.71 C 235.563 108.458 235.767 108.25399999999999 236.01999999999998 108.25399999999999 C 236.272 108.25399999999999 236.47699999999998 108.45799999999998 236.47699999999998 108.71099999999998 L 236.47699999999998 109.31099999999998 L 237.07699999999997 109.31099999999998 C 237.32999999999996 109.31099999999998 237.53499999999997 109.51699999999998 237.53499999999997 109.76799999999997 C 237.53499999999997 110.02099999999997 237.32999999999996 110.22499999999997 237.07799999999997 110.22499999999997 L 236.47699999999998 110.22499999999997 L 236.47699999999998 110.82599999999996 C 236.47699999999998 111.07799999999996 236.27199999999996 111.28299999999996 236.01999999999998 111.28299999999996 C 235.767 111.28299999999996 235.563 111.07799999999996 235.563 110.82599999999996 L 235.563 110.22599999999997 L 234.963 110.22599999999997 C 234.71 110.22599999999997 234.505 110.02099999999997 234.505 109.76799999999997 C 234.505 109.51699999999997 234.71 109.31099999999998 234.963 109.31099999999998 L 235.563 109.31099999999998 L 235.563 108.71099999999998 M 214.77 20.704 C 214.77 20.452 214.97500000000002 20.248 215.227 20.248 C 215.48 20.248 215.684 20.452 215.684 20.704 L 215.684 21.305 L 216.286 21.305 C 216.537 21.305 216.743 21.509 216.743 21.762 C 216.743 22.015 216.537 22.219 216.286 22.219 L 215.684 22.219 L 215.684 22.819000000000003 C 215.684 23.072000000000003 215.48 23.277 215.227 23.277 C 214.975 23.277 214.77 23.072000000000003 214.77 22.819000000000003 L 214.77 22.219 L 214.17000000000002 22.219 C 213.918 22.219 213.71300000000002 22.015 213.71300000000002 21.762 C 213.71300000000002 21.509 213.91800000000003 21.305 214.17000000000002 21.305 L 214.77 21.305 L 214.77 20.704 M 210.902 114.997 C 210.902 114.745 211.107 114.54 211.35899999999998 114.54 C 211.61099999999996 114.54 211.81599999999997 114.745 211.81599999999997 114.997 L 211.81599999999997 115.597 L 212.41599999999997 115.597 C 212.66899999999995 115.597 212.87299999999996 115.803 212.87299999999996 116.05399999999999 C 212.87299999999996 116.30699999999999 212.66899999999995 116.51199999999999 212.41699999999997 116.51199999999999 L 211.81599999999997 116.51199999999999 L 211.81599999999997 117.11199999999998 C 211.81599999999997 117.36499999999998 211.61099999999996 117.56999999999998 211.35899999999998 117.56999999999998 C 211.107 117.56999999999998 210.902 117.36499999999998 210.902 117.11299999999999 L 210.902 116.51199999999999 L 210.301 116.51199999999999 C 210.04899999999998 116.51199999999999 209.844 116.30699999999999 209.844 116.05399999999999 C 209.844 115.80299999999998 210.049 115.597 210.301 115.597 L 210.902 115.597 L 210.902 114.997 M 235.08 205.904 C 235.08 205.652 235.28400000000002 205.447 235.537 205.447 C 235.788 205.447 235.994 205.65200000000002 235.994 205.904 L 235.994 206.506 L 236.594 206.506 C 236.84699999999998 206.506 237.051 206.71 237.051 206.962 C 237.051 207.21499999999997 236.84699999999998 207.41899999999998 236.594 207.41899999999998 L 235.994 207.41899999999998 L 235.994 208.01999999999998 C 235.994 208.27299999999997 235.788 208.47799999999998 235.537 208.47799999999998 C 235.28400000000002 208.47799999999998 235.08 208.27299999999997 235.08 208.01999999999998 L 235.08 207.41899999999998 L 234.479 207.41899999999998 C 234.227 207.41899999999998 234.02100000000002 207.21499999999997 234.02100000000002 206.962 C 234.02100000000002 206.70999999999998 234.227 206.506 234.479 206.506 L 235.08 206.506 L 235.08 205.904 M 49.879 210.74 C 49.879 210.488 50.083 210.28300000000002 50.336 210.28300000000002 C 50.588 210.28300000000002 50.793 210.48800000000003 50.793 210.739 L 50.793 211.341 L 51.394 211.341 C 51.646 211.341 51.851 211.54500000000002 51.851 211.798 C 51.851 212.051 51.646 212.255 51.394 212.255 L 50.794 212.255 L 50.794 212.857 C 50.794 213.108 50.587999999999994 213.312 50.336 213.312 C 50.083 213.312 49.879 213.108 49.879 212.857 L 49.879 212.255 L 49.278999999999996 212.255 C 49.025999999999996 212.255 48.821 212.051 48.821 211.798 C 48.821 211.54500000000002 49.025999999999996 211.341 49.278 211.341 L 49.878 211.341 L 49.878 210.739" stroke-linecap="round" />
</g>
		<g transform="matrix(1.02 0 0 1.02 20.84 -89.88)"  >
<path style="stroke: none; stroke-width: 1; stroke-dasharray: none; stroke-linecap: butt; stroke-dashoffset: 0; stroke-linejoin: miter; stroke-miterlimit: 4; fill: rgb(255,255,254); fill-rule: evenodd; opacity: 1;" vector-effect="non-scaling-stroke"  transform=" translate(-151.35, -29.88)" d="M 136.704 29.383 C 136.957 29.383 137.161 29.607 137.161 29.883 C 137.161 30.157999999999998 136.957 30.383 136.704 30.383 L 134.922 30.383 C 134.669 30.383 134.465 30.157999999999998 134.465 29.883 C 134.465 29.607 134.669 29.383 134.922 29.383 L 136.704 29.383 z M 139.60500000000002 30.383 C 139.354 30.383 139.14900000000003 30.157999999999998 139.14900000000003 29.883 C 139.14900000000003 29.607 139.35400000000004 29.383 139.60500000000002 29.383 L 167.77300000000002 29.383 C 168.02500000000003 29.383 168.23000000000002 29.607 168.23000000000002 29.883 C 168.23000000000002 30.157999999999998 168.025 30.383 167.77300000000002 30.383 L 139.60500000000002 30.383 z" stroke-linecap="round" />
</g>
		<g transform="matrix(1.02 0 0 1.02 6.57 -84.38)"  >
<path style="stroke: none; stroke-width: 1; stroke-dasharray: none; stroke-linecap: butt; stroke-dashoffset: 0; stroke-linejoin: miter; stroke-miterlimit: 4; fill: rgb(238,238,238); fill-rule: evenodd; opacity: 1;" vector-effect="non-scaling-stroke"  transform=" translate(-137.3, -35.3)" d="M 55.685 29.042 C 55.937000000000005 29.042 56.142 29.265 56.142 29.542 C 56.142 29.817 55.937000000000005 30.042 55.685 30.042 L 53.902 30.042 C 53.65 30.042 53.446 29.817 53.446 29.542 C 53.446 29.265 53.65 29.042 53.902 29.042 L 55.685 29.042 z M 58.587 30.042 C 58.335 30.042 58.13 29.817 58.13 29.542 C 58.13 29.265 58.335 29.042 58.587 29.042 L 86.754 29.042 C 87.006 29.042 87.211 29.265 87.211 29.542 C 87.211 29.817 87.006 30.042 86.754 30.042 L 58.587 30.042 z M 189.63 40.558 C 189.881 40.558 190.08599999999998 40.782 190.08599999999998 41.058 C 190.08599999999998 41.334 189.88099999999997 41.558 189.629 41.558 L 187.846 41.558 C 187.594 41.558 187.389 41.334 187.389 41.058 C 187.389 40.782 187.59400000000002 40.558 187.846 40.558 L 189.629 40.558 z M 192.53 41.558 C 192.278 41.558 192.074 41.334 192.074 41.058 C 192.074 40.782 192.27800000000002 40.558 192.531 40.558 L 220.698 40.558 C 220.95000000000002 40.558 221.154 40.782 221.154 41.058 C 221.154 41.334 220.95 41.558 220.698 41.558 L 192.53 41.558 z" stroke-linecap="round" />
</g>
</g>
</g>
</svg>