<?xml version="1.0" encoding="UTF-8" standalone="no" ?>
<!DOCTYPE svg PUBLIC "-//W3C//DTD SVG 1.1//EN" "http://www.w3.org/Graphics/SVG/1.1/DTD/svg11.dtd">
<svg xmlns="http://www.w3.org/2000/svg" xmlns:xlink="http://www.w3.org/1999/xlink" version="1.1" width="70" height="70" viewBox="0 0 70 70" xml:space="preserve">
<desc>Created with Fabric.js 4.2.0</desc>
<defs>
</defs>
<g transform="matrix(1 0 0 1 35 35)" id="440117cd-7b88-4928-882f-92032909469a"  >
<rect style="stroke: none; stroke-width: 1; stroke-dasharray: none; stroke-linecap: butt; stroke-dashoffset: 0; stroke-linejoin: miter; stroke-miterlimit: 4; fill: rgb(255,255,255); fill-rule: nonzero; opacity: 1;" vector-effect="non-scaling-stroke"  x="-35" y="-35" rx="0" ry="0" width="70" height="70" />
</g>
<g transform="matrix(Infinity NaN NaN Infinity 0 0)" id="4abcda15-5c32-45b2-b32c-e0d1249ca920"  >
</g>
<g transform="matrix(0.85 0 0 0.85 35 35)"  >
<g style="" vector-effect="non-scaling-stroke"   >
		<g transform="matrix(3.04 0 0 3.04 0 0.19)" id="Fill-1"  >
<path style="stroke: none; stroke-width: 1; stroke-dasharray: none; stroke-linecap: butt; stroke-dashoffset: 0; stroke-linejoin: miter; stroke-miterlimit: 4; fill: rgb(74,51,143); fill-rule: nonzero; opacity: 1;" vector-effect="non-scaling-stroke"  transform=" translate(-11.43, -10.68)" d="M 17.3 1.7 C 17.2 1.7 17.1 1.7 17 1.8 L 2 9 C 1.8 9.1 1.7 9.2 1.6 9.4 C 1.5 9.6 1.6 9.700000000000001 1.6 9.9 L 4.1 15.100000000000001 C 5.5 18 8.399999999999999 19.700000000000003 11.5 19.700000000000003 C 12.7 19.700000000000003 13.9 19.400000000000002 15 18.900000000000002 L 16.5 18.200000000000003 C 20.6 16.200000000000003 22.3 11.400000000000002 20.3 7.3000000000000025 L 17.9 2 C 17.799999999999997 1.8 17.7 1.7 17.5 1.7 C 17.5 1.7 17.4 1.7 17.3 1.7 M 11.6 21.3 C 8 21.3 4.5 19.3 2.799999999999999 15.8 L 0.29999999999999893 10.600000000000001 C 0 10 -0.1 9.4 0.1 8.8 C 0.30000000000000004 8.200000000000001 0.7 7.800000000000001 1.2000000000000002 7.500000000000001 L 16.3 0.20000000000000107 C 16.9 0 17.5 0 18.1 0.2 C 18.700000000000003 0.4 19.1 0.8 19.400000000000002 1.3 L 21.900000000000002 6.5 C 23.000000000000004 8.8 23.200000000000003 11.5 22.3 14 C 21.400000000000002 16.5 19.7 18.5 17.3 19.6 L 15.8 20.3 C 14.4 21 13 21.3 11.6 21.3" stroke-linecap="round" />
</g>
		<g transform="matrix(3.04 0 0 3.04 21.95 -20.35)" id="Fill-4"  >
<path style="stroke: none; stroke-width: 1; stroke-dasharray: none; stroke-linecap: butt; stroke-dashoffset: 0; stroke-linejoin: miter; stroke-miterlimit: 4; fill: rgb(253,221,0); fill-rule: nonzero; opacity: 1;" vector-effect="non-scaling-stroke"  transform=" translate(-4, -4.1)" d="M 4 1.3 C 2.5 1.3 1.2999999999999998 2.5 1.2999999999999998 4 C 1.2999999999999998 5.5 2.5 6.7 4 6.7 C 5.5 6.7 6.7 5.5 6.7 4 C 6.7 2.6 5.5 1.3 4 1.3 M 4 8.1 C 1.7999999999999998 8.1 0 6.3 0 4.1 C 0 1.8999999999999995 1.8 0.09999999999999964 4 0.09999999999999964 C 6.2 0.09999999999999964 8 1.8999999999999997 8 4.1 C 8 6.3 6.2 8.1 4 8.1" stroke-linecap="round" />
</g>
		<g transform="matrix(3.04 0 0 3.04 -7.1 -10.5)" id="Fill-7"  >
<path style="stroke: none; stroke-width: 1; stroke-dasharray: none; stroke-linecap: butt; stroke-dashoffset: 0; stroke-linejoin: miter; stroke-miterlimit: 4; fill: rgb(253,221,0); fill-rule: nonzero; opacity: 1;" vector-effect="non-scaling-stroke"  transform=" translate(-9.1, -7.4)" d="M 9.1 4.7 C 7.6 4.7 6.3999999999999995 5.9 6.3999999999999995 7.4 C 6.3999999999999995 8.9 7.6 10.100000000000001 9.1 10.100000000000001 C 10.6 10.100000000000001 11.8 8.900000000000002 11.8 7.400000000000001 C 11.7 5.9 10.5 4.7 9.1 4.7 M 9.1 11.4 C 6.8999999999999995 11.4 5.1 9.6 5.1 7.4 C 5.1 5.2 6.8999999999999995 3.4000000000000004 9.1 3.4000000000000004 C 11.3 3.4000000000000004 13.1 5.2 13.1 7.4 C 13 9.6 11.3 11.4 9.1 11.4" stroke-linecap="round" />
</g>
		<g transform="matrix(3.04 0 0 3.04 12.24 9.9)" id="Fill-9"  >
<path style="stroke: none; stroke-width: 1; stroke-dasharray: none; stroke-linecap: butt; stroke-dashoffset: 0; stroke-linejoin: miter; stroke-miterlimit: 4; fill: rgb(253,221,0); fill-rule: nonzero; opacity: 1;" vector-effect="non-scaling-stroke"  transform=" translate(-15.45, -14.1)" d="M 13.1 17.6 C 12.799999999999999 17.6 12.4 17.6 12.1 17.5 L 12.299999999999999 16.2 C 13.7 16.4 14.899999999999999 16.099999999999998 15.799999999999999 15.299999999999999 C 16.9 14.299999999999999 17.599999999999998 12.599999999999998 17.5 10.599999999999998 L 18.8 10.599999999999998 C 18.900000000000002 12.899999999999999 18 15.099999999999998 16.6 16.299999999999997 C 15.7 17.2 14.5 17.6 13.1 17.6" stroke-linecap="round" />
</g>
</g>
</g>
</svg>