<?xml version="1.0" encoding="UTF-8" standalone="no" ?>
<!DOCTYPE svg PUBLIC "-//W3C//DTD SVG 1.1//EN" "http://www.w3.org/Graphics/SVG/1.1/DTD/svg11.dtd">
<svg xmlns="http://www.w3.org/2000/svg" xmlns:xlink="http://www.w3.org/1999/xlink" version="1.1" width="1080" height="1080" viewBox="0 0 1080 1080" xml:space="preserve">
<desc>Created with Fabric.js 4.2.0</desc>
<defs>
</defs>
<rect x="0" y="0" width="100%" height="100%" fill="transparent"></rect>
<g transform="matrix(1 0 0 1 540 540)" id="86dc7acd-b007-4b71-896d-092f073f3325"  >
</g>
<g transform="matrix(1 0 0 1 540 540)" id="7e8bc19c-967b-434c-8595-e570cad17135"  >
<rect style="stroke: none; stroke-width: 1; stroke-dasharray: none; stroke-linecap: butt; stroke-dashoffset: 0; stroke-linejoin: miter; stroke-miterlimit: 4; fill: rgb(255,255,255); fill-rule: nonzero; opacity: 1;" vector-effect="non-scaling-stroke"  x="-540" y="-540" rx="0" ry="0" width="1080" height="1080" />
</g>
<g transform="matrix(40.99 0 0 40.99 540 540)"  >
<g style="" vector-effect="non-scaling-stroke"   >
		<g transform="matrix(1.2 0 0 1.2 0 0)"  >
<rect style="stroke: none; stroke-width: 1; stroke-dasharray: none; stroke-linecap: butt; stroke-dashoffset: 0; stroke-linejoin: miter; stroke-miterlimit: 4; fill: rgb(255,255,255); fill-opacity: 0; fill-rule: nonzero; opacity: 1;" vector-effect="non-scaling-stroke"  x="-12.5" y="-12.5" rx="0" ry="0" width="25" height="25" />
</g>
		<g transform="matrix(1.2 0 0 1.2 -2.1 1.79)"  >
<ellipse style="stroke: none; stroke-width: 1; stroke-dasharray: none; stroke-linecap: butt; stroke-dashoffset: 0; stroke-linejoin: miter; stroke-miterlimit: 4; fill: rgb(247,209,0); fill-rule: nonzero; opacity: 1;" vector-effect="non-scaling-stroke"  cx="0" cy="0" rx="7.41" ry="7.68" />
</g>
		<g transform="matrix(1.2 0 0 1.2 0.01 -0.04)"  >
<path style="stroke: rgb(74,52,141); stroke-width: 1; stroke-dasharray: none; stroke-linecap: round; stroke-dashoffset: 0; stroke-linejoin: round; stroke-miterlimit: 4; fill: none; fill-rule: nonzero; opacity: 1;" vector-effect="non-scaling-stroke"  transform=" translate(-12.51, -12.47)" d="M 16.6 21 C 16.280988057536273 21.174579430209103 15.946159966479884 21.31855550936335 15.600000000000001 21.43 C 12.408973825452286 22.53488591216213 8.871194305820097 21.86084180562295 6.310000000000002 19.66 C 6.120000000000002 19.5 5.940000000000002 19.32 5.7600000000000025 19.14 C 2.7422291584493887 16.086253189012478 2.150531609237568 11.386832771302297 4.317128658469043 7.680329343003461 C 6.483725707700518 3.9738259147046247 10.868890184934322 2.1835771164250595 15.010477245983928 3.314756613002002 C 19.15206430703353 4.445936109578945 22.018351386603218 8.216752550301894 22 12.510000000000002 C 22.011723088649223 14.024686407714432 21.66928286284951 15.521150194459189 21 16.88 C 20.610931056494532 17.64469190905937 20.073877347731116 18.324506730278888 19.42 18.88" stroke-linecap="round" />
</g>
		<g transform="matrix(1.2 0 0 1.2 -1.88 0.02)"  >
<path style="stroke: none; stroke-width: 1; stroke-dasharray: none; stroke-linecap: butt; stroke-dashoffset: 0; stroke-linejoin: miter; stroke-miterlimit: 4; fill: rgb(74,52,141); fill-rule: nonzero; opacity: 1;" vector-effect="non-scaling-stroke"  transform=" translate(-10.93, -12.52)" d="M 9.16 11.68 C 9.191877684387594 11.47351167862001 9.361688761401629 11.316125802363098 9.57 11.299999999999999 Q 11.8 10.799999999999999 14.04 10.299999999999999 C 14.582663648491211 10.217688291935437 14.957560250084875 9.713363101696341 14.879999999999999 9.169999999999998 C 14.540131321626284 9.354733466557464 14.176838411093122 9.492650219630239 13.799999999999999 9.579999999999998 C 12.169999999999998 10.04 10.469999999999999 10.239999999999998 8.879999999999999 10.809999999999999 C 8.176063085733759 10.961228645286328 7.5630388789776095 11.390345590015633 7.18 12.000000000000002 C 6.998202009199352 12.258450809417958 6.932923839570965 12.581215092580535 7 12.89 C 7 13.05 7.13 13.16 7.32 13.13 C 7.510000000000001 13.100000000000001 7.48 12.97 7.45 12.82 C 7.357314152421499 12.415527580979662 7.55644298556897 12.000675845255763 7.93 11.82 C 8.19348654171742 11.67870114329145 8.476615210077485 11.577583761734283 8.77 11.52 C 8.309999999999999 11.889999999999999 8.35 12.37 8.23 12.79 C 8.23 12.899999999999999 8.23 13.049999999999999 8.07 13.079999999999998 C 7.69 13.169999999999998 7.74 13.469999999999999 7.680000000000001 13.769999999999998 C 7.82 13.769999999999998 7.890000000000001 13.599999999999998 8.040000000000001 13.649999999999999 C 7.980000000000001 13.95 7.920000000000001 14.239999999999998 7.870000000000001 14.53 C 7.798853164156979 14.800560907111947 7.7718391672682365 15.080831124832649 7.790000000000001 15.36 C 7.790000000000001 15.709999999999999 8.090000000000002 15.92 8.38 15.86 C 8.47 15.86 8.57 15.86 8.540000000000001 15.7 C 8.448120493228089 15.029605861275192 8.502708127857174 14.34726042841163 8.700000000000001 13.700000000000001 C 8.697933289492036 13.478619524735599 8.860676588504713 13.2901799153525 9.080000000000002 13.26 C 9.460000000000003 13.18 9.620000000000001 12.92 9.650000000000002 12.5 C 9.410668850566122 12.63236634645233 9.155214083951803 12.733203754326404 8.890000000000002 12.8 C 9 12.4 9.09 12 9.16 11.68 Z" stroke-linecap="round" />
</g>
		<g transform="matrix(1.2 0 0 1.2 -0.28 -0.26)"  >
<path style="stroke: none; stroke-width: 1; stroke-dasharray: none; stroke-linecap: butt; stroke-dashoffset: 0; stroke-linejoin: miter; stroke-miterlimit: 4; fill: rgb(74,52,141); fill-rule: nonzero; opacity: 1;" vector-effect="non-scaling-stroke"  transform=" translate(-12.27, -12.29)" d="M 14 11.15 C 13.884323636500422 11.444716001453926 13.743818403527627 11.729071830089346 13.58 12 C 13.49 12.14 13.4 12.27 13.28 12.43 C 13.187942358314256 12.543844130687113 13.087674419620699 12.65079659862691 12.979999999999999 12.75 C 13.006238800917867 12.307142366364793 13.104178711797488 11.871478624865793 13.269999999999998 11.46 C 13.269999999999998 11.340000000000002 13.269999999999998 11.21 13.159999999999998 11.260000000000002 C 12.79 11.390000000000002 12.349999999999998 11.350000000000001 12.069999999999999 11.720000000000002 C 11.856457188906298 12.055684942044818 11.68199110803789 12.414682454600962 11.549999999999997 12.790000000000003 C 11.444656331912883 12.971450990945671 11.30547317798319 13.1310024113041 11.139999999999999 13.260000000000003 C 11.178978778815193 12.825654566541974 11.287003032399863 12.400309068052332 11.46 12.000000000000002 C 11.46 11.88 11.46 11.75 11.350000000000001 11.8 C 10.980000000000002 11.930000000000001 10.55 11.89 10.270000000000001 12.260000000000002 C 10.076599495490607 12.492423522311915 9.924402574771982 12.756231518224197 9.82 13.040000000000003 C 9.74468938597529 13.265599491074015 9.70751320291374 13.502175201465692 9.710000000000003 13.740000000000002 C 9.710000000000003 13.97 9.920000000000003 14.08 10.170000000000003 13.94 C 10.354411675688755 13.817102239050497 10.511096038726803 13.657011694207274 10.630000000000004 13.469999999999999 C 10.740000000000004 13.739999999999998 10.870000000000005 13.85 11.110000000000005 13.7 C 11.276684782035339 13.56715036652611 11.424686067241876 13.412421750173824 11.550000000000004 13.239999999999998 C 11.610000000000005 13.499999999999998 11.760000000000005 13.569999999999999 12.010000000000005 13.429999999999998 C 12.189894186122176 13.30173754344654 12.345635444432888 13.142610605607336 12.470000000000006 12.959999999999997 C 12.570000000000006 13.229999999999997 12.710000000000006 13.339999999999998 12.950000000000006 13.189999999999998 C 13.21807207797002 12.951110682851882 13.450444403674977 12.674958063898163 13.640000000000006 12.369999999999997 C 13.800000000000006 12.099999999999998 13.950000000000006 11.819999999999997 14.110000000000007 11.539999999999997 C 14.179034866410305 11.868644821456577 14.195908027031043 12.20610803387135 14.160000000000007 12.539999999999997 C 14.103287602752898 12.716671239769184 13.971577050724635 12.859357671133136 13.800000000000008 12.929999999999998 C 13.610000000000008 13.009999999999998 13.860000000000008 13.129999999999997 13.860000000000008 13.129999999999997 C 14.060000000000008 13.209999999999997 14.560000000000008 13.359999999999998 14.700000000000008 12.569999999999997 C 14.733898363061495 12.354659216815925 14.733898363061497 12.135340783184068 14.700000000000008 11.919999999999996 C 14.630000000000008 11.439999999999996 14.400000000000007 11.029999999999996 14.830000000000009 10.569999999999997 C 14.479668722781506 10.627401557118253 14.17434701493512 10.840758895131389 14 11.15 Z M 10.84 12.34 C 10.74728534192537 12.714980181813566 10.602548271584597 13.075139868475487 10.41 13.41 C 10.41 13.47 10.35 13.540000000000001 10.27 13.53 C 10.19 13.519999999999998 10.2 13.37 10.2 13.36 C 10.293445948611117 12.967888744450567 10.441562575149968 12.590864604169859 10.639999999999999 12.24 C 10.639999999999999 12.179999999999998 10.729999999999999 12.099999999999998 10.819999999999999 12.139999999999999 C 10.909999999999998 12.18 10.89 12.27 10.87 12.34 Z M 12.68 11.83 C 12.582938630787222 12.203562814264906 12.438429528682734 12.563155231129562 12.25 12.9 C 12.25 12.96 12.19 13.030000000000001 12.11 13.02 C 12.03 13.009999999999998 12.04 12.86 12.04 12.85 C 12.128464582428332 12.457851114214568 12.27330373384185 12.080595650067735 12.469999999999999 11.73 C 12.469999999999999 11.67 12.569999999999999 11.59 12.659999999999998 11.63 C 12.749999999999998 11.670000000000002 12.73 11.76 12.71 11.83 Z" stroke-linecap="round" />
</g>
		<g transform="matrix(1.2 0 0 1.2 1.6 0.36)"  >
<path style="stroke: none; stroke-width: 1; stroke-dasharray: none; stroke-linecap: butt; stroke-dashoffset: 0; stroke-linejoin: miter; stroke-miterlimit: 4; fill: rgb(74,52,141); fill-rule: nonzero; opacity: 1;" vector-effect="non-scaling-stroke"  transform=" translate(-13.83, -12.8)" d="M 18 9.82 C 17.640936139619395 9.904703038913757 17.339484559077956 10.147334798861742 17.18 10.48 C 17.045227119908933 11.111597806179642 16.690908020062952 11.674965174934751 16.18 12.07 C 16.400262386939726 11.755304678453387 16.525242154366726 11.38383703637869 16.54 11 C 16.54 10.52 16.31 10.34 15.87 10.55 C 15.316922600013212 10.808120185466425 14.951510119504219 11.350469235485038 14.92 11.96 C 14.92 12.440000000000001 15.11 12.590000000000002 15.39 12.58 C 15.935830388100745 12.51234516020497 16.435915263400734 12.240870513613546 16.79 11.82 C 17.020278330382208 11.598800222617468 17.192077221284308 11.323921997174105 17.29 11.02 C 17.385137670020992 11.361478614799504 17.425638542233298 11.71586124665715 17.41 12.070000000000002 C 17.41 12.51 17.12 12.96 16.06 13.3 C 13.2 14.190000000000001 13.419999999999998 14.020000000000001 10.489999999999998 14.780000000000001 C 9.879999999999999 14.940000000000001 9.719999999999999 15.13 9.669999999999998 15.780000000000001 C 10.419999999999998 15.580000000000002 13.739999999999998 14.700000000000001 16.189999999999998 13.89 C 17.759999999999998 13.370000000000001 17.889999999999997 12.89 17.97 12.370000000000001 C 18.11 11.5 17.38 10.44 18 9.82 Z M 16 11 C 15.964296416254232 11.386870993681509 15.855720356203634 11.76349420198202 15.68 12.11 C 15.68 12.19 15.58 12.299999999999999 15.469999999999999 12.27 C 15.359999999999998 12.24 15.389999999999999 12.11 15.389999999999999 12 C 15.446130799968415 11.621768087560351 15.567965492510943 11.256264009932767 15.749999999999998 10.92 C 15.749999999999998 10.86 15.839999999999998 10.78 15.919999999999998 10.81 C 15.989351783063885 10.845424950300577 16.02312539924376 10.925637288727781 16 11 Z" stroke-linecap="round" />
</g>
</g>
</g>
</svg>