<?xml version="1.0" encoding="UTF-8" standalone="no" ?>
<!DOCTYPE svg PUBLIC "-//W3C//DTD SVG 1.1//EN" "http://www.w3.org/Graphics/SVG/1.1/DTD/svg11.dtd">
<svg xmlns="http://www.w3.org/2000/svg" xmlns:xlink="http://www.w3.org/1999/xlink" version="1.1" width="1080" height="1080" viewBox="0 0 1080 1080" xml:space="preserve">
<desc>Created with Fabric.js 4.2.0</desc>
<defs>
</defs>
<rect x="0" y="0" width="100%" height="100%" fill="transparent"></rect>
<g transform="matrix(1 0 0 1 540 540)" id="86dc7acd-b007-4b71-896d-092f073f3325"  >
</g>
<g transform="matrix(1 0 0 1 540 540)" id="7e8bc19c-967b-434c-8595-e570cad17135"  >
<rect style="stroke: none; stroke-width: 1; stroke-dasharray: none; stroke-linecap: butt; stroke-dashoffset: 0; stroke-linejoin: miter; stroke-miterlimit: 4; fill: rgb(255,255,255); fill-rule: nonzero; opacity: 1;" vector-effect="non-scaling-stroke"  x="-540" y="-540" rx="0" ry="0" width="1080" height="1080" />
</g>
<g transform="matrix(37.55 0 0 37.55 540 540)"  >
<g style="" vector-effect="non-scaling-stroke"   >
		<g transform="matrix(0.94 0 0 0.94 0 0)"  >
<path style="stroke: rgb(74,52,141); stroke-width: 0.4; stroke-dasharray: none; stroke-linecap: butt; stroke-dashoffset: 0; stroke-linejoin: miter; stroke-miterlimit: 4; fill: rgb(74,52,141); fill-rule: nonzero; opacity: 1;" vector-effect="non-scaling-stroke"  transform=" translate(-15, -13)" d="M 15 0 C 10.906 0 7.188 1.297 4.464 3.436 C 1.74 5.576 0 8.591 0 11.945 C 0 14.639 1.122 17.14 2.983 19.125 L 1.0550000000000002 25.075 C 0.9700000000000002 25.338 1.0430000000000001 25.628 1.2400000000000002 25.814999999999998 C 1.4380000000000002 26.002 1.7240000000000002 26.051999999999996 1.9700000000000002 25.942999999999998 L 8.928 22.869 C 10.798000000000002 23.529 12.838000000000001 23.889 15 23.889 C 15.246 23.893 15.475 23.759999999999998 15.599 23.541 C 15.723 23.323 15.723 23.051000000000002 15.599 22.833000000000002 C 15.475 22.614 15.246 22.481 15 22.485000000000003 C 12.870000000000001 22.485000000000003 10.879 22.141000000000002 9.097999999999999 21.475 C 8.935999999999998 21.413 8.757 21.417 8.597999999999999 21.485000000000003 L 2.8339999999999987 24.033 L 4.4 19.19 C 4.48 18.933 4.41 18.650000000000002 4.219 18.465 C 2.3930000000000002 16.661 1.3640000000000003 14.379 1.3640000000000003 11.943999999999999 C 1.3640000000000003 9.088999999999999 2.8260000000000005 6.484999999999999 5.284000000000001 4.554999999999999 C 7.742000000000001 2.624999999999999 11.187000000000001 1.404999999999999 15 1.404999999999999 C 18.813 1.404999999999999 22.258 2.624999999999999 24.716 4.554999999999999 C 27.174 6.4849999999999985 28.636000000000003 9.088999999999999 28.636000000000003 11.943999999999999 C 28.636000000000003 16.979 23.985000000000003 21.320999999999998 17.631 22.286 C 17.39 22.323 17.186 22.491 17.096 22.725 C 17.006 22.959000000000003 17.046 23.225 17.197 23.422 C 17.349 23.619 17.592 23.718 17.834 23.68 C 24.68 22.641 30 17.86 30 11.945 C 30 8.591000000000001 28.26 5.575 25.536 3.436 C 22.812 1.297 19.094 0 15 0 z" stroke-linecap="round" />
</g>
		<g transform="matrix(0.94 0 0 0.94 -0.3 -1.46)"  >
<path style="stroke: none; stroke-width: 1; stroke-dasharray: none; stroke-linecap: butt; stroke-dashoffset: 0; stroke-linejoin: miter; stroke-miterlimit: 4; fill: rgb(244,208,14); fill-rule: evenodd; opacity: 1;" vector-effect="non-scaling-stroke"  transform=" translate(-14.68, -11.45)" d="M 7.682 8.945 C 9.082 8.945 10.182 10.045 10.182 11.445 C 10.182 12.845 9.082 13.945 7.682 13.945 C 6.282 13.945 5.182 12.845 5.182 11.445 C 5.182 10.045 6.282 8.945 7.682 8.945 z M 14.682 8.945 C 16.082 8.945 17.182000000000002 10.045 17.182000000000002 11.445 C 17.182000000000002 12.845 16.082 13.945 14.682000000000002 13.945 C 13.282000000000004 13.945 12.182000000000002 12.845 12.182000000000002 11.445 C 12.182000000000002 10.045 13.282000000000002 8.945 14.682000000000002 8.945 z M 21.682 8.945 C 23.081999999999997 8.945 24.182 10.045 24.182 11.445 C 24.182 12.845 23.081999999999997 13.945 21.682 13.945 C 20.282 13.945 19.182 12.845 19.182 11.445 C 19.182 10.045 20.282 8.945 21.682 8.945 z" stroke-linecap="round" />
</g>
</g>
</g>
</svg>