<?xml version="1.0" encoding="UTF-8" standalone="no" ?>
<!DOCTYPE svg PUBLIC "-//W3C//DTD SVG 1.1//EN" "http://www.w3.org/Graphics/SVG/1.1/DTD/svg11.dtd">
<svg xmlns="http://www.w3.org/2000/svg" xmlns:xlink="http://www.w3.org/1999/xlink" version="1.1" width="1080" height="1080" viewBox="0 0 1080 1080" xml:space="preserve">
<desc>Created with Fabric.js 4.2.0</desc>
<defs>
</defs>
<rect x="0" y="0" width="100%" height="100%" fill="transparent"></rect>
<g transform="matrix(1 0 0 1 540 540)" id="86dc7acd-b007-4b71-896d-092f073f3325"  >
</g>
<g transform="matrix(1 0 0 1 540 540)" id="7e8bc19c-967b-434c-8595-e570cad17135"  >
<rect style="stroke: none; stroke-width: 1; stroke-dasharray: none; stroke-linecap: butt; stroke-dashoffset: 0; stroke-linejoin: miter; stroke-miterlimit: 4; fill: rgb(255,255,255); fill-rule: nonzero; opacity: 1;" vector-effect="non-scaling-stroke"  x="-540" y="-540" rx="0" ry="0" width="1080" height="1080" />
</g>
<g transform="matrix(40.31 0 0 40.31 540 540)"  >
<g style="" vector-effect="non-scaling-stroke"   >
		<g transform="matrix(1.2 0 0 1.2 0 0)"  >
<rect style="stroke: none; stroke-width: 1; stroke-dasharray: none; stroke-linecap: butt; stroke-dashoffset: 0; stroke-linejoin: miter; stroke-miterlimit: 4; fill: rgb(255,255,255); fill-opacity: 0; fill-rule: nonzero; opacity: 1;" vector-effect="non-scaling-stroke"  x="-12.5" y="-12.5" rx="0" ry="0" width="25" height="25" />
</g>
		<g transform="matrix(1.2 0 0 1.2 -2.2 0.63)"  >
<path style="stroke: none; stroke-width: 1; stroke-dasharray: none; stroke-linecap: butt; stroke-dashoffset: 0; stroke-linejoin: miter; stroke-miterlimit: 4; fill: rgb(247,209,0); fill-rule: evenodd; opacity: 1;" vector-effect="non-scaling-stroke"  transform=" translate(-10.67, -13.02)" d="M 5 14.38 C 5.995083969324386 15.753002249890244 7.673649852515065 16.455298780328643 9.349999999999998 16.2 C 10.08 16.05 10.75 15.68 11.48 15.5 C 13.56 15.01 15.760000000000002 16.22 17.84 15.74 C 15.234760599510432 15.17074224210552 12.855412534754578 13.845403627088004 11 11.929999999999998 C 10.559565134532455 11.409189437863255 10.05564462178695 10.945582566137393 9.5 10.55 C 8.520662128208647 10.062745596209163 7.432495321527246 9.835470250509882 6.339999999999998 9.89 L 4.2 9.82 C 3.85 9.82 3.58 9.68 3.5 10.030000000000001 C 3.4865985767017316 10.368280718162033 3.530552732848209 10.706389611596475 3.6299999999999994 11.03 C 3.736677064062637 11.645070644961057 3.9041654041883627 12.248028669413662 4.13 12.829999999999997 C 4.247109150783547 13.117441397146004 4.380663278402713 13.397905065146253 4.5299999999999985 13.669999999999998 C 4.62 13.8 5 14.22 5 14.38 Z" stroke-linecap="round" />
</g>
		<g transform="matrix(1.2 0 0 1.2 0 0)"  >
<path style="stroke: rgb(74,52,141); stroke-width: 1; stroke-dasharray: none; stroke-linecap: round; stroke-dashoffset: 0; stroke-linejoin: round; stroke-miterlimit: 4; fill: none; fill-rule: evenodd; opacity: 1;" vector-effect="non-scaling-stroke"  transform=" translate(-12.5, -12.5)" d="M 22 8.57 C 21.94 8.57 21.48 9.05 21.44 9.09 C 21.040092320578786 9.436143544279332 20.592095989950202 9.722456988666023 20.11 9.94 C 18.88 10.51 17.82 9.74 16.56 9.75 C 15.508842793437946 9.779685438688434 14.480109705110747 10.0608724828312 13.559999999999995 10.57 C 12.905174242006519 10.92565134277584 12.11482575799348 10.92565134277584 11.459999999999999 10.57 C 10.5387278826726 10.063737956166587 9.510700440419754 9.782743788617479 8.459999999999999 9.750000000000002 C 7.209999999999999 9.75 6.149999999999999 10.51 4.909999999999999 9.94 C 4.431009855553763 9.722358307744441 3.9863284537880577 9.436010435395314 3.589999999999998 9.09 C 3.539999999999999 9.09 3.089999999999999 8.54 3.029999999999999 8.57 C 2.709999999999999 10.73 4.559999999999999 15.8 7.029999999999999 16.34 C 8.389999999999999 16.64 9.42 16.16 11.12 15.59 C 11.977871935396392 15.270429485759545 12.922128064603605 15.270429485759545 13.779999999999998 15.59 C 15.479999999999999 16.16 16.5 16.64 17.86 16.34 C 18.798965383161764 16.045614032021636 19.596468801996664 15.415443919817276 20.1 14.57 C 20.762442837210497 13.582768306462002 21.26213163719926 12.495607538918875 21.580000000000002 11.349999999999996" stroke-linecap="round" />
</g>
		<g transform="matrix(1.2 0 0 1.2 -3.77 0.24)"  >
<path style="stroke: none; stroke-width: 1; stroke-dasharray: none; stroke-linecap: butt; stroke-dashoffset: 0; stroke-linejoin: miter; stroke-miterlimit: 4; fill: rgb(74,52,141); fill-rule: evenodd; opacity: 1;" vector-effect="non-scaling-stroke"  transform=" translate(-9.35, -12.7)" d="M 7.14 11.87 C 8.77304279928354 11.15842237919259 10.680030375796175 11.786910384092916 11.569999999999999 13.329999999999995 C 10.05 14.33 7.43 13.82 7.14 11.87 Z" stroke-linecap="round" />
</g>
		<g transform="matrix(1.2 0 0 1.2 3.82 0.24)"  >
<path style="stroke: none; stroke-width: 1; stroke-dasharray: none; stroke-linecap: butt; stroke-dashoffset: 0; stroke-linejoin: miter; stroke-miterlimit: 4; fill: rgb(74,52,141); fill-rule: nonzero; opacity: 1;" vector-effect="non-scaling-stroke"  transform=" translate(-15.68, -12.7)" d="M 13.47 13.33 C 14.356236744408227 11.788369069235728 16.259868989574844 11.1595674678911 17.89 11.870000000000001 C 17.61 13.82 15 14.33 13.47 13.33 Z" stroke-linecap="round" />
</g>
</g>
</g>
</svg>