<?xml version="1.0" encoding="UTF-8" standalone="no" ?>
<!DOCTYPE svg PUBLIC "-//W3C//DTD SVG 1.1//EN" "http://www.w3.org/Graphics/SVG/1.1/DTD/svg11.dtd">
<svg xmlns="http://www.w3.org/2000/svg" xmlns:xlink="http://www.w3.org/1999/xlink" version="1.1" width="1080" height="1080" viewBox="0 0 1080 1080" xml:space="preserve">
<desc>Created with Fabric.js 4.2.0</desc>
<defs>
</defs>
<rect x="0" y="0" width="100%" height="100%" fill="transparent"></rect>
<g transform="matrix(1 0 0 1 540 540)" id="86dc7acd-b007-4b71-896d-092f073f3325"  >
</g>
<g transform="matrix(1 0 0 1 540 540)" id="7e8bc19c-967b-434c-8595-e570cad17135"  >
<rect style="stroke: none; stroke-width: 1; stroke-dasharray: none; stroke-linecap: butt; stroke-dashoffset: 0; stroke-linejoin: miter; stroke-miterlimit: 4; fill: rgb(255,255,255); fill-rule: nonzero; opacity: 1;" vector-effect="non-scaling-stroke"  x="-540" y="-540" rx="0" ry="0" width="1080" height="1080" />
</g>
<g transform="matrix(41.65 0 0 41.65 528.07 551.93)"  >
<g style="" vector-effect="non-scaling-stroke"   >
		<g transform="matrix(1.2 0 0 1.2 0 0)"  >
<rect style="stroke: none; stroke-width: 1; stroke-dasharray: none; stroke-linecap: butt; stroke-dashoffset: 0; stroke-linejoin: miter; stroke-miterlimit: 4; fill: rgb(255,255,255); fill-opacity: 0; fill-rule: nonzero; opacity: 1;" vector-effect="non-scaling-stroke"  x="-12.5" y="-12.5" rx="0" ry="0" width="25" height="25" />
</g>
		<g transform="matrix(1.2 0 0 1.2 0.03 0)"  >
<path style="stroke: rgb(75,53,141); stroke-width: 1; stroke-dasharray: none; stroke-linecap: round; stroke-dashoffset: 0; stroke-linejoin: round; stroke-miterlimit: 10; fill: none; fill-rule: nonzero; opacity: 1;" vector-effect="non-scaling-stroke"  transform=" translate(-12.53, -12.5)" d="M 12.15 22.01 C 12.25 19.810000000000002 10.99 17.790000000000003 9.690000000000001 16.020000000000003 C 8.390000000000002 14.250000000000004 6.950000000000001 12.440000000000003 6.580000000000002 10.270000000000003 C 6.250000000000002 8.330000000000004 6.880000000000002 6.240000000000003 8.260000000000002 4.830000000000003 C 9.64 3.4200000000000026 11.720000000000002 2.7300000000000026 13.660000000000002 3.0800000000000027 C 15.600000000000001 3.430000000000003 17.330000000000002 4.810000000000002 18.060000000000002 6.640000000000002 C 18.730000000000004 8.310000000000002 18.740000000000002 10.280000000000003 18.01 11.920000000000002 C 17.290000000000003 13.55 14.690000000000001 16.470000000000002 14.14 19.520000000000003" stroke-linecap="round" />
</g>
		<g transform="matrix(1.2 0 0 1.2 0 -4.33)"  >
<circle style="stroke: none; stroke-width: 1; stroke-dasharray: none; stroke-linecap: butt; stroke-dashoffset: 0; stroke-linejoin: miter; stroke-miterlimit: 4; fill: rgb(246,209,14); fill-rule: nonzero; opacity: 1;" vector-effect="non-scaling-stroke"  cx="0" cy="0" r="2.5" />
</g>
</g>
</g>
</svg>