<?xml version="1.0" encoding="UTF-8" standalone="no" ?>
<!DOCTYPE svg PUBLIC "-//W3C//DTD SVG 1.1//EN" "http://www.w3.org/Graphics/SVG/1.1/DTD/svg11.dtd">
<svg xmlns="http://www.w3.org/2000/svg" xmlns:xlink="http://www.w3.org/1999/xlink" version="1.1" width="1080" height="1080" viewBox="0 0 1080 1080" xml:space="preserve">
<desc>Created with Fabric.js 4.2.0</desc>
<defs>
</defs>
<rect x="0" y="0" width="100%" height="100%" fill="transparent"></rect>
<g transform="matrix(1 0 0 1 540 540)" id="86dc7acd-b007-4b71-896d-092f073f3325"  >
</g>
<g transform="matrix(1 0 0 1 540 540)" id="7e8bc19c-967b-434c-8595-e570cad17135"  >
<rect style="stroke: none; stroke-width: 1; stroke-dasharray: none; stroke-linecap: butt; stroke-dashoffset: 0; stroke-linejoin: miter; stroke-miterlimit: 4; fill: rgb(255,255,255); fill-rule: nonzero; opacity: 1;" vector-effect="non-scaling-stroke"  x="-540" y="-540" rx="0" ry="0" width="1080" height="1080" />
</g>
<g transform="matrix(41.02 0 0 41.02 540 540)"  >
<g style="" vector-effect="non-scaling-stroke"   >
		<g transform="matrix(1.2 0 0 1.2 0 0)"  >
<rect style="stroke: none; stroke-width: 1; stroke-dasharray: none; stroke-linecap: butt; stroke-dashoffset: 0; stroke-linejoin: miter; stroke-miterlimit: 4; fill: rgb(255,255,255); fill-opacity: 0; fill-rule: nonzero; opacity: 1;" vector-effect="non-scaling-stroke"  x="-12.5" y="-12.5" rx="0" ry="0" width="25" height="25" />
</g>
		<g transform="matrix(1.2 0 0 1.2 -2.47 0)"  >
<path style="stroke: rgb(75,53,141); stroke-width: 1; stroke-dasharray: none; stroke-linecap: round; stroke-dashoffset: 0; stroke-linejoin: round; stroke-miterlimit: 10; fill: none; fill-rule: nonzero; opacity: 1;" vector-effect="non-scaling-stroke"  transform=" translate(-10.47, -12.62)" d="M 18.01 14.47 C 17.930000000000003 14.850000000000001 17.880000000000003 14.97 17.740000000000002 15.34 C 16.8 17.9 14.510000000000002 19.8 11.810000000000002 20.25 C 11.610000000000003 20.28 11.400000000000002 20.31 11.190000000000003 20.33 C 9.180000000000003 20.5 7.160000000000003 19.869999999999997 5.610000000000003 18.58 C 2.320000000000003 15.859999999999998 1.860000000000003 10.979999999999999 4.580000000000003 7.689999999999998 C 7.3000000000000025 4.399999999999997 12.180000000000003 3.9399999999999977 15.470000000000002 6.6599999999999975 C 16.410000000000004 7.439999999999998 17.19 8.449999999999998 17.680000000000003 9.579999999999998 C 18.01 10.339999999999998 18.080000000000002 10.79 18.130000000000003 11.619999999999997" stroke-linecap="round" />
</g>
		<g transform="matrix(1.2 0 0 1.2 -2.41 -0.01)"  >
<circle style="stroke: none; stroke-width: 1; stroke-dasharray: none; stroke-linecap: butt; stroke-dashoffset: 0; stroke-linejoin: miter; stroke-miterlimit: 4; fill: rgb(246,209,14); fill-rule: nonzero; opacity: 1;" vector-effect="non-scaling-stroke"  cx="0" cy="0" r="4.72" />
</g>
		<g transform="matrix(1.2 0 0 1.2 2.4 0.36)"  >
<path style="stroke: none; stroke-width: 1; stroke-dasharray: none; stroke-linecap: butt; stroke-dashoffset: 0; stroke-linejoin: miter; stroke-miterlimit: 4; fill: rgb(75,53,141); fill-rule: nonzero; opacity: 1;" vector-effect="non-scaling-stroke"  transform=" translate(-14.53, -12.92)" d="M 19.88 12.46 C 17.549999999999997 12.440000000000001 11.579999999999998 12.420000000000002 9.249999999999998 12.39 C 8.729999999999999 12.39 8.659999999999998 13.38 9.179999999999998 13.38 C 11.509999999999998 13.4 17.479999999999997 13.42 19.81 13.450000000000001 C 20.33 13.46 20.4 12.47 19.88 12.46 z" stroke-linecap="round" />
</g>
		<g transform="matrix(1.2 0 0 1.2 9.77 0.52)"  >
<path style="stroke: none; stroke-width: 1; stroke-dasharray: none; stroke-linecap: butt; stroke-dashoffset: 0; stroke-linejoin: miter; stroke-miterlimit: 4; fill: rgb(75,53,141); fill-rule: nonzero; opacity: 1;" vector-effect="non-scaling-stroke"  transform=" translate(-20.67, -13.05)" d="M 22.2 12.52 C 22.16 12.45 22.09 12.4 22.009999999999998 12.379999999999999 C 21.209999999999997 11.639999999999999 20.419999999999998 10.899999999999999 19.619999999999997 10.159999999999998 C 19.29 9.859999999999998 18.88 10.499999999999998 19.209999999999997 10.809999999999999 C 19.939999999999998 11.489999999999998 20.679999999999996 12.169999999999998 21.409999999999997 12.849999999999998 C 20.709999999999997 13.659999999999998 19.999999999999996 14.479999999999997 19.299999999999997 15.289999999999997 C 19.169999999999998 15.439999999999998 19.119999999999997 15.669999999999998 19.22 15.859999999999998 C 19.31 16.019999999999996 19.54 16.089999999999996 19.669999999999998 15.929999999999998 C 20.49 14.979999999999999 21.31 14.039999999999997 22.13 13.089999999999998 C 22.26 12.94 22.31 12.71 22.2 12.52 z" stroke-linecap="round" />
</g>
</g>
</g>
</svg>