<?xml version="1.0" encoding="UTF-8" standalone="no" ?>
<!DOCTYPE svg PUBLIC "-//W3C//DTD SVG 1.1//EN" "http://www.w3.org/Graphics/SVG/1.1/DTD/svg11.dtd">
<svg xmlns="http://www.w3.org/2000/svg" xmlns:xlink="http://www.w3.org/1999/xlink" version="1.1" width="1080" height="1080" viewBox="0 0 1080 1080" xml:space="preserve">
<desc>Created with Fabric.js 4.2.0</desc>
<defs>
</defs>
<rect x="0" y="0" width="100%" height="100%" fill="transparent"></rect>
<g transform="matrix(1 0 0 1 540 540)" id="86dc7acd-b007-4b71-896d-092f073f3325"  >
</g>
<g transform="matrix(1 0 0 1 540 540)" id="7e8bc19c-967b-434c-8595-e570cad17135"  >
<rect style="stroke: none; stroke-width: 1; stroke-dasharray: none; stroke-linecap: butt; stroke-dashoffset: 0; stroke-linejoin: miter; stroke-miterlimit: 4; fill: rgb(255,255,255); fill-rule: nonzero; opacity: 1;" vector-effect="non-scaling-stroke"  x="-540" y="-540" rx="0" ry="0" width="1080" height="1080" />
</g>
<g transform="matrix(40.31 0 0 40.31 540 540)"  >
<g style="" vector-effect="non-scaling-stroke"   >
		<g transform="matrix(1.2 0 0 1.2 0 0)"  >
<rect style="stroke: none; stroke-width: 1; stroke-dasharray: none; stroke-linecap: butt; stroke-dashoffset: 0; stroke-linejoin: miter; stroke-miterlimit: 4; fill: rgb(255,255,255); fill-opacity: 0; fill-rule: nonzero; opacity: 1;" vector-effect="non-scaling-stroke"  x="-12.5" y="-12.5" rx="0" ry="0" width="25" height="25" />
</g>
		<g transform="matrix(1.2 0 0 1.2 -0.06 0.01)"  >
<path style="stroke: rgb(75,53,141); stroke-width: 1; stroke-dasharray: none; stroke-linecap: round; stroke-dashoffset: 0; stroke-linejoin: round; stroke-miterlimit: 10; fill: none; fill-rule: nonzero; opacity: 1;" vector-effect="non-scaling-stroke"  transform=" translate(-12.45, -12.57)" d="M 16.55 21.09 C 16.12 21.31 15.97 21.36 15.520000000000001 21.52 C 12.360000000000001 22.63 8.780000000000001 21.95 6.240000000000002 19.75 C 6.050000000000002 19.58 5.860000000000002 19.41 5.6800000000000015 19.23 C 3.9500000000000015 17.47 2.9600000000000013 15.06 2.9600000000000013 12.58 C 2.9600000000000013 7.34 7.210000000000001 3.09 12.450000000000001 3.09 C 17.69 3.09 21.94 7.34 21.94 12.58 C 21.94 14.08 21.59 15.61 20.91 16.95 C 20.45 17.849999999999998 20.080000000000002 18.28 19.33 18.98" stroke-linecap="round" />
</g>
		<g transform="matrix(1.2 0 0 1.2 -0.06 0.01)"  >
<circle style="stroke: none; stroke-width: 1; stroke-dasharray: none; stroke-linecap: butt; stroke-dashoffset: 0; stroke-linejoin: miter; stroke-miterlimit: 4; fill: rgb(246,209,14); fill-rule: nonzero; opacity: 1;" vector-effect="non-scaling-stroke"  cx="0" cy="0" r="5.79" />
</g>
		<g transform="matrix(1.2 0 0 1.2 -0.36 0.06)"  >
<path style="stroke: none; stroke-width: 1; stroke-dasharray: none; stroke-linecap: butt; stroke-dashoffset: 0; stroke-linejoin: miter; stroke-miterlimit: 4; fill: rgb(75,53,141); fill-rule: nonzero; opacity: 1;" vector-effect="non-scaling-stroke"  transform=" translate(-12.2, -12.61)" d="M 12.14 13.63 C 11.91 13.4 12.020000000000001 13.010000000000002 12.33 12.940000000000001 C 12.8 12.830000000000002 13.27 12.650000000000002 13.63 12.320000000000002 C 14.030000000000001 11.950000000000003 14.24 11.480000000000002 14.24 10.900000000000002 C 14.24 9.940000000000001 13.52 9.200000000000003 12.32 8.890000000000002 C 12.08 8.830000000000002 11.84 8.990000000000002 11.81 9.230000000000002 L 11.81 9.230000000000002 C 11.780000000000001 9.440000000000003 11.91 9.640000000000002 12.110000000000001 9.690000000000003 C 12.790000000000001 9.870000000000003 13.410000000000002 10.260000000000003 13.410000000000002 10.900000000000002 C 13.410000000000002 11.240000000000002 13.300000000000002 11.500000000000002 13.070000000000002 11.710000000000003 C 12.450000000000003 12.270000000000003 11.190000000000001 12.280000000000003 10.160000000000002 12.260000000000003 L 10.160000000000002 12.650000000000004 C 10.160000000000002 12.760000000000003 10.200000000000001 12.860000000000005 10.280000000000001 12.940000000000003 L 13.540000000000001 16.220000000000002 C 13.620000000000001 16.3 13.72 16.340000000000003 13.83 16.340000000000003 L 13.83 16.340000000000003 C 14.2 16.340000000000003 14.38 15.900000000000004 14.12 15.640000000000004 L 12.14 13.63 z" stroke-linecap="round" />
</g>
		<g transform="matrix(1.2 0 0 1.2 -0.06 -4.02)"  >
<path style="stroke: none; stroke-width: 1; stroke-dasharray: none; stroke-linecap: butt; stroke-dashoffset: 0; stroke-linejoin: miter; stroke-miterlimit: 4; fill: rgb(75,53,141); fill-rule: nonzero; opacity: 1;" vector-effect="non-scaling-stroke"  transform=" translate(-12.45, -9.21)" d="M 15.01 9.62 L 9.89 9.62 C 9.66 9.62 9.48 9.44 9.48 9.209999999999999 L 9.48 9.209999999999999 C 9.48 8.979999999999999 9.66 8.799999999999999 9.89 8.799999999999999 L 15.010000000000002 8.799999999999999 C 15.240000000000002 8.799999999999999 15.420000000000002 8.979999999999999 15.420000000000002 9.209999999999999 L 15.420000000000002 9.209999999999999 C 15.42 9.43 15.24 9.62 15.01 9.62 z" stroke-linecap="round" />
</g>
		<g transform="matrix(1.2 0 0 1.2 -0.06 -1.87)"  >
<path style="stroke: none; stroke-width: 1; stroke-dasharray: none; stroke-linecap: butt; stroke-dashoffset: 0; stroke-linejoin: miter; stroke-miterlimit: 4; fill: rgb(75,53,141); fill-rule: nonzero; opacity: 1;" vector-effect="non-scaling-stroke"  transform=" translate(-12.45, -11)" d="M 15.01 11.41 L 9.89 11.41 C 9.66 11.41 9.48 11.23 9.48 11 L 9.48 11 C 9.48 10.77 9.66 10.59 9.89 10.59 L 15.010000000000002 10.59 C 15.240000000000002 10.59 15.420000000000002 10.77 15.420000000000002 11 L 15.420000000000002 11 C 15.42 11.22 15.24 11.41 15.01 11.41 z" stroke-linecap="round" />
</g>
</g>
</g>
</svg>